<svg width="121" height="30" viewBox="0 0 121 30" fill="none" xmlns="http://www.w3.org/2000/svg">
<path d="M49.0889 16.5156H47.5771V22H45.3623V9.20312H47.5771V14.582H48.7988L52.5605 9.20312H55.2852L50.8906 15.3291L55.6719 22H53L49.0889 16.5156ZM65.0234 17.3418C65.0234 18.8125 64.6895 19.9873 64.0215 20.8662C63.3535 21.7393 62.457 22.1758 61.332 22.1758C60.2891 22.1758 59.4541 21.833 58.8271 21.1475V25.6562H56.6914V12.4902H58.6602L58.748 13.457C59.375 12.6953 60.2275 12.3145 61.3057 12.3145C62.4658 12.3145 63.374 12.748 64.0303 13.6152C64.6924 14.4766 65.0234 15.6748 65.0234 17.21V17.3418ZM62.8965 17.1572C62.8965 16.208 62.7061 15.4551 62.3252 14.8984C61.9502 14.3418 61.4111 14.0635 60.708 14.0635C59.835 14.0635 59.208 14.4238 58.8271 15.1445V19.3633C59.2139 20.1016 59.8467 20.4707 60.7256 20.4707C61.4053 20.4707 61.9355 20.1982 62.3164 19.6533C62.7031 19.1025 62.8965 18.2705 62.8965 17.1572ZM71.0264 22.1758C69.6729 22.1758 68.5742 21.751 67.7305 20.9014C66.8926 20.0459 66.4736 18.9092 66.4736 17.4912V17.2275C66.4736 16.2783 66.6553 15.4316 67.0186 14.6875C67.3877 13.9375 67.9033 13.3545 68.5654 12.9385C69.2275 12.5225 69.9658 12.3145 70.7803 12.3145C72.0752 12.3145 73.0742 12.7275 73.7773 13.5537C74.4863 14.3799 74.8408 15.5488 74.8408 17.0605V17.9219H68.627C68.6914 18.707 68.9521 19.3281 69.4092 19.7852C69.8721 20.2422 70.4521 20.4707 71.1494 20.4707C72.1279 20.4707 72.9248 20.0752 73.54 19.2842L74.6914 20.3828C74.3105 20.9512 73.8008 21.3936 73.1621 21.71C72.5293 22.0205 71.8174 22.1758 71.0264 22.1758ZM70.7715 14.0283C70.1855 14.0283 69.7109 14.2334 69.3477 14.6436C68.9902 15.0537 68.7617 15.625 68.6621 16.3574H72.7314V16.1992C72.6846 15.4844 72.4941 14.9453 72.1602 14.582C71.8262 14.2129 71.3633 14.0283 70.7715 14.0283ZM76.5459 20.2949C77.1377 19.6328 77.5332 19.0059 77.7324 18.4141C77.9375 17.8164 78.0605 17.0547 78.1016 16.1289L78.2246 12.4902H84.8252V20.2949H86.1436V24.8301H84.0166V22H77.917V24.8301H75.7549L75.7637 20.2949H76.5459ZM79.0508 20.2949H82.6982V14.3271H80.2988L80.2373 16.1465C80.1553 17.8926 79.7598 19.2754 79.0508 20.2949ZM93.4473 12.4902H95.5742V22H93.4473V15.6543L89.7207 22H87.5938V12.4902H89.7207V18.8359L93.4473 12.4902ZM105.33 14.1865H102.245V22H100.109V14.1865H97.0596V12.4902H105.33V14.1865ZM109.057 15.5137H111.148C111.928 15.5137 112.607 15.6484 113.188 15.918C113.768 16.1875 114.207 16.5654 114.506 17.0518C114.811 17.5381 114.963 18.1035 114.963 18.748C114.963 19.7266 114.617 20.5117 113.926 21.1035C113.234 21.6953 112.314 21.9941 111.166 22H106.921V12.4902H109.057V15.5137ZM118.681 22H116.545V12.4902H118.681V22ZM109.057 17.2275V20.2949H111.14C111.661 20.2949 112.071 20.166 112.37 19.9082C112.675 19.6445 112.827 19.2725 112.827 18.792C112.827 18.3115 112.678 17.9336 112.379 17.6582C112.086 17.377 111.688 17.2334 111.184 17.2275H109.057Z" fill="#4C4B51"/>
<path d="M32.7022 4.39716L11.8788 0.0350432C10.9978 -0.149457 10.1246 0.413172 9.93822 1.28524L9.54261 3.80181L33.5692 8.83467L33.9649 6.31811C34.1512 5.44636 33.5832 4.58172 32.7022 4.39716Z" fill="#565EF5"/>
<path d="M23.9451 9.36838C23.7019 8.50137 22.7865 7.98889 21.9109 8.22926L17.9579 9.31553L8.63885 7.3633L7.61395 12.1567L1.21035 13.916C0.334793 14.1565 -0.182933 15.0625 0.0599021 15.9293L3.6687 28.8018C3.91193 29.6685 4.82732 30.1813 5.70288 29.9406L26.4035 24.2542C27.279 24.0134 27.7967 23.1077 27.5539 22.2406L26.9345 20.0308L29.2561 20.5167C30.1371 20.7015 31.0103 20.1389 31.1967 19.2668L32.6656 12.3962L24.3029 10.6445L23.9451 9.36838ZM26.3357 15.9107L26.8477 13.5157C26.9246 13.1571 27.2838 12.9258 27.646 13.0015L30.0656 13.5086C30.4282 13.5847 30.6619 13.9399 30.5854 14.2988L30.0734 16.6939C29.9965 17.0525 29.6374 17.2841 29.2751 17.2081L26.8555 16.7013C26.4926 16.6249 26.2589 16.2693 26.3357 15.9107ZM1.57058 15.2006L22.2704 9.51455C22.297 9.50745 22.3235 9.5041 22.3494 9.5041C22.466 9.5041 22.6055 9.57988 22.6463 9.72501L23.3522 12.2422L2.0638 18.0899L1.35797 15.573C1.31374 15.4151 1.41108 15.2444 1.57058 15.2006ZM26.2558 22.5968C26.283 22.6945 26.2545 22.7753 26.2255 22.8258C26.197 22.8763 26.1418 22.9424 26.0432 22.9692L5.34299 28.6556C5.31682 28.6627 5.28994 28.6664 5.26405 28.6664C5.14738 28.6664 5.00788 28.5903 4.9671 28.4452L2.8622 20.9368L24.1506 15.0888L26.2558 22.5968Z" fill="#565EF5"/>
<path d="M8.68804 23.1106C8.58871 22.7571 8.21587 22.5483 7.8587 22.6463L5.44118 23.3106C5.08435 23.4086 4.87313 23.778 4.97246 24.1316L5.64324 26.5242C5.74258 26.8778 6.11541 27.0865 6.47258 26.9882L8.8901 26.3242C9.24727 26.2262 9.45816 25.8568 9.35915 25.5033L8.68804 23.1106Z" fill="#565EF5"/>
</svg>
