<svg width="23" height="18" viewBox="0 0 23 18" fill="none" xmlns="http://www.w3.org/2000/svg">
<path d="M22.1536 2.1309C21.3298 2.49228 20.4519 2.73182 19.5367 2.84812C20.4782 2.28597 21.1969 1.4026 21.5347 0.337842C20.6569 0.861221 19.6876 1.23091 18.6547 1.43722C17.8212 0.549686 16.6332 0 15.3372 0C12.8228 0 10.7985 2.0409 10.7985 4.54287C10.7985 4.90287 10.829 5.24902 10.9037 5.57855C7.12792 5.3944 3.78688 3.58473 1.54244 0.827991C1.1506 1.50783 0.920759 2.28597 0.920759 3.12366C0.920759 4.69656 1.73075 6.09086 2.93812 6.89808C2.20844 6.88423 1.4926 6.67239 0.886144 6.3387C0.886144 6.35255 0.886144 6.37055 0.886144 6.38855C0.886144 8.5956 2.46043 10.4288 4.52487 10.8511C4.15519 10.9522 3.75227 11.0006 3.33412 11.0006C3.04335 11.0006 2.74982 10.984 2.47428 10.9231C3.06274 12.7217 4.73256 14.044 6.71808 14.0869C5.17287 15.2957 3.21089 16.024 1.08691 16.024C0.714454 16.024 0.357227 16.0074 0 15.9617C2.01182 17.259 4.39611 17.9998 6.96731 17.9998C15.3248 17.9998 19.8939 11.0768 19.8939 5.07594C19.8939 4.87518 19.887 4.68133 19.8773 4.48887C20.7787 3.84919 21.5361 3.05027 22.1536 2.1309Z" fill="black"/>
</svg>
