<svg width="431" height="53" viewBox="0 0 431 53" fill="none" xmlns="http://www.w3.org/2000/svg">
<path d="M291.999 11.9282V15.0712C291.999 15.2962 291.914 15.5129 291.761 15.6775C291.607 15.8422 291.397 15.9425 291.172 15.9582C290.784 15.9849 290.467 15.9991 290.221 15.9991C282.367 15.9991 276 9.63235 276 1.77768C276 1.53236 276.013 1.21504 276.041 0.826621C276.057 0.602139 276.157 0.391988 276.322 0.238572C276.486 0.0851569 276.703 -0.000101713 276.928 2.28058e-07H280.071C280.181 -0.000111402 280.287 0.0407613 280.369 0.114678C280.451 0.188596 280.503 0.29028 280.514 0.399978C280.534 0.604411 280.553 0.767069 280.57 0.890617C280.747 2.12337 281.109 3.32233 281.644 4.44687C281.729 4.62463 281.673 4.83706 281.513 4.95084L279.595 6.32143C280.768 9.05412 282.946 11.2319 285.679 12.4046L287.047 10.4901C287.103 10.4119 287.185 10.3558 287.278 10.3316C287.371 10.3074 287.47 10.3166 287.557 10.3576C288.681 10.8917 289.88 11.2528 291.112 11.4287C291.236 11.4465 291.398 11.466 291.601 11.4856C291.71 11.4968 291.812 11.5483 291.886 11.6301C291.959 11.7119 292 11.8181 292 11.9282H291.999Z" fill="#1F1E25"/>
<path d="M317.016 4.625C317.016 5.18229 316.872 5.67969 316.586 6.11719C316.299 6.54948 315.909 6.89062 315.414 7.14062C316.008 7.41667 316.464 7.79427 316.781 8.27344C317.104 8.7526 317.266 9.29427 317.266 9.89844C317.266 10.8984 316.927 11.6927 316.25 12.2812C315.573 12.8646 314.672 13.1562 313.547 13.1562C312.417 13.1562 311.51 12.862 310.828 12.2734C310.151 11.6849 309.812 10.8932 309.812 9.89844C309.812 9.28906 309.974 8.74219 310.297 8.25781C310.62 7.77344 311.073 7.40104 311.656 7.14062C311.167 6.89062 310.779 6.54948 310.492 6.11719C310.211 5.67969 310.07 5.18229 310.07 4.625C310.07 3.65625 310.383 2.88802 311.008 2.32031C311.633 1.7526 312.477 1.46875 313.539 1.46875C314.607 1.46875 315.453 1.7526 316.078 2.32031C316.703 2.88802 317.016 3.65625 317.016 4.625ZM315.367 9.80469C315.367 9.24219 315.198 8.78906 314.859 8.44531C314.526 8.09635 314.083 7.92188 313.531 7.92188C312.979 7.92188 312.536 8.09375 312.203 8.4375C311.875 8.78125 311.711 9.23698 311.711 9.80469C311.711 10.362 311.872 10.8073 312.195 11.1406C312.523 11.474 312.974 11.6406 313.547 11.6406C314.12 11.6406 314.565 11.4792 314.883 11.1562C315.206 10.8333 315.367 10.3828 315.367 9.80469ZM315.125 4.69531C315.125 4.20052 314.982 3.79427 314.695 3.47656C314.409 3.15365 314.023 2.99219 313.539 2.99219C313.055 2.99219 312.672 3.14583 312.391 3.45312C312.109 3.75521 311.969 4.16927 311.969 4.69531C311.969 5.21615 312.109 5.63021 312.391 5.9375C312.677 6.24479 313.062 6.39844 313.547 6.39844C314.031 6.39844 314.414 6.24479 314.695 5.9375C314.982 5.63021 315.125 5.21615 315.125 4.69531ZM330.094 4.625C330.094 5.18229 329.951 5.67969 329.664 6.11719C329.378 6.54948 328.987 6.89062 328.492 7.14062C329.086 7.41667 329.542 7.79427 329.859 8.27344C330.182 8.7526 330.344 9.29427 330.344 9.89844C330.344 10.8984 330.005 11.6927 329.328 12.2812C328.651 12.8646 327.75 13.1562 326.625 13.1562C325.495 13.1562 324.589 12.862 323.906 12.2734C323.229 11.6849 322.891 10.8932 322.891 9.89844C322.891 9.28906 323.052 8.74219 323.375 8.25781C323.698 7.77344 324.151 7.40104 324.734 7.14062C324.245 6.89062 323.857 6.54948 323.57 6.11719C323.289 5.67969 323.148 5.18229 323.148 4.625C323.148 3.65625 323.461 2.88802 324.086 2.32031C324.711 1.7526 325.555 1.46875 326.617 1.46875C327.685 1.46875 328.531 1.7526 329.156 2.32031C329.781 2.88802 330.094 3.65625 330.094 4.625ZM328.445 9.80469C328.445 9.24219 328.276 8.78906 327.938 8.44531C327.604 8.09635 327.161 7.92188 326.609 7.92188C326.057 7.92188 325.615 8.09375 325.281 8.4375C324.953 8.78125 324.789 9.23698 324.789 9.80469C324.789 10.362 324.951 10.8073 325.273 11.1406C325.602 11.474 326.052 11.6406 326.625 11.6406C327.198 11.6406 327.643 11.4792 327.961 11.1562C328.284 10.8333 328.445 10.3828 328.445 9.80469ZM328.203 4.69531C328.203 4.20052 328.06 3.79427 327.773 3.47656C327.487 3.15365 327.102 2.99219 326.617 2.99219C326.133 2.99219 325.75 3.14583 325.469 3.45312C325.188 3.75521 325.047 4.16927 325.047 4.69531C325.047 5.21615 325.188 5.63021 325.469 5.9375C325.755 6.24479 326.141 6.39844 326.625 6.39844C327.109 6.39844 327.492 6.24479 327.773 5.9375C328.06 5.63021 328.203 5.21615 328.203 4.69531ZM339.438 8.21094C339.438 9.84635 339.13 11.0807 338.516 11.9141C337.906 12.7422 336.977 13.1562 335.727 13.1562C334.497 13.1562 333.57 12.7526 332.945 11.9453C332.326 11.1328 332.008 9.93229 331.992 8.34375V6.375C331.992 4.73958 332.297 3.51302 332.906 2.69531C333.521 1.8776 334.456 1.46875 335.711 1.46875C336.956 1.46875 337.883 1.86719 338.492 2.66406C339.107 3.46094 339.422 4.65365 339.438 6.24219V8.21094ZM337.539 6.08594C337.539 5.01823 337.393 4.23698 337.102 3.74219C336.81 3.24219 336.346 2.99219 335.711 2.99219C335.091 2.99219 334.635 3.22917 334.344 3.70312C334.052 4.17188 333.898 4.90625 333.883 5.90625V8.48438C333.883 9.54688 334.031 10.3385 334.328 10.8594C334.625 11.3802 335.091 11.6406 335.727 11.6406C336.336 11.6406 336.786 11.401 337.078 10.9219C337.37 10.4375 337.523 9.68229 337.539 8.65625V6.08594ZM348.531 8.21094C348.531 9.84635 348.224 11.0807 347.609 11.9141C347 12.7422 346.07 13.1562 344.82 13.1562C343.591 13.1562 342.664 12.7526 342.039 11.9453C341.419 11.1328 341.102 9.93229 341.086 8.34375V6.375C341.086 4.73958 341.391 3.51302 342 2.69531C342.615 1.8776 343.549 1.46875 344.805 1.46875C346.049 1.46875 346.977 1.86719 347.586 2.66406C348.201 3.46094 348.516 4.65365 348.531 6.24219V8.21094ZM346.633 6.08594C346.633 5.01823 346.487 4.23698 346.195 3.74219C345.904 3.24219 345.44 2.99219 344.805 2.99219C344.185 2.99219 343.729 3.22917 343.438 3.70312C343.146 4.17188 342.992 4.90625 342.977 5.90625V8.48438C342.977 9.54688 343.125 10.3385 343.422 10.8594C343.719 11.3802 344.185 11.6406 344.82 11.6406C345.43 11.6406 345.88 11.401 346.172 10.9219C346.464 10.4375 346.617 9.68229 346.633 8.65625V6.08594ZM359.336 13H357.445V3.86719L354.656 4.82031V3.21875L359.094 1.58594H359.336V13ZM368.43 13H366.539V3.86719L363.75 4.82031V3.21875L368.188 1.58594H368.43V13ZM377.523 13H375.633V3.86719L372.844 4.82031V3.21875L377.281 1.58594H377.523V13ZM393.109 13H385.461V11.6953L389.25 7.5625C389.797 6.95312 390.185 6.44531 390.414 6.03906C390.648 5.6276 390.766 5.21615 390.766 4.80469C390.766 4.26302 390.612 3.82552 390.305 3.49219C390.003 3.15885 389.594 2.99219 389.078 2.99219C388.464 2.99219 387.987 3.17969 387.648 3.55469C387.31 3.92969 387.141 4.44271 387.141 5.09375H385.242C385.242 4.40104 385.398 3.77865 385.711 3.22656C386.029 2.66927 386.479 2.23698 387.062 1.92969C387.651 1.6224 388.328 1.46875 389.094 1.46875C390.198 1.46875 391.068 1.7474 391.703 2.30469C392.344 2.85677 392.664 3.6224 392.664 4.60156C392.664 5.16927 392.503 5.76562 392.18 6.39062C391.862 7.01042 391.339 7.71615 390.609 8.50781L387.828 11.4844H393.109V13ZM402.203 13H394.555V11.6953L398.344 7.5625C398.891 6.95312 399.279 6.44531 399.508 6.03906C399.742 5.6276 399.859 5.21615 399.859 4.80469C399.859 4.26302 399.706 3.82552 399.398 3.49219C399.096 3.15885 398.688 2.99219 398.172 2.99219C397.557 2.99219 397.081 3.17969 396.742 3.55469C396.404 3.92969 396.234 4.44271 396.234 5.09375H394.336C394.336 4.40104 394.492 3.77865 394.805 3.22656C395.122 2.66927 395.573 2.23698 396.156 1.92969C396.745 1.6224 397.422 1.46875 398.188 1.46875C399.292 1.46875 400.161 1.7474 400.797 2.30469C401.438 2.85677 401.758 3.6224 401.758 4.60156C401.758 5.16927 401.596 5.76562 401.273 6.39062C400.956 7.01042 400.432 7.71615 399.703 8.50781L396.922 11.4844H402.203V13ZM409.828 6.44531H410.984C411.568 6.4401 412.029 6.28906 412.367 5.99219C412.711 5.69531 412.883 5.26562 412.883 4.70312C412.883 4.16146 412.74 3.74219 412.453 3.44531C412.172 3.14323 411.74 2.99219 411.156 2.99219C410.646 2.99219 410.227 3.14062 409.898 3.4375C409.57 3.72917 409.406 4.11198 409.406 4.58594H407.508C407.508 4.0026 407.661 3.47135 407.969 2.99219C408.281 2.51302 408.714 2.14062 409.266 1.875C409.823 1.60417 410.445 1.46875 411.133 1.46875C412.268 1.46875 413.159 1.75521 413.805 2.32812C414.456 2.89583 414.781 3.6875 414.781 4.70312C414.781 5.21354 414.617 5.69531 414.289 6.14844C413.966 6.59635 413.547 6.9349 413.031 7.16406C413.656 7.3776 414.13 7.71354 414.453 8.17188C414.781 8.63021 414.945 9.17708 414.945 9.8125C414.945 10.8333 414.594 11.6458 413.891 12.25C413.193 12.8542 412.273 13.1562 411.133 13.1562C410.039 13.1562 409.143 12.8646 408.445 12.2812C407.747 11.6979 407.398 10.9219 407.398 9.95312H409.297C409.297 10.4531 409.464 10.8594 409.797 11.1719C410.135 11.4844 410.589 11.6406 411.156 11.6406C411.745 11.6406 412.208 11.4844 412.547 11.1719C412.885 10.8594 413.055 10.4062 413.055 9.8125C413.055 9.21354 412.878 8.7526 412.523 8.42969C412.169 8.10677 411.643 7.94531 410.945 7.94531H409.828V6.44531ZM418.922 6.44531H420.078C420.661 6.4401 421.122 6.28906 421.461 5.99219C421.805 5.69531 421.977 5.26562 421.977 4.70312C421.977 4.16146 421.833 3.74219 421.547 3.44531C421.266 3.14323 420.833 2.99219 420.25 2.99219C419.74 2.99219 419.32 3.14062 418.992 3.4375C418.664 3.72917 418.5 4.11198 418.5 4.58594H416.602C416.602 4.0026 416.755 3.47135 417.062 2.99219C417.375 2.51302 417.807 2.14062 418.359 1.875C418.917 1.60417 419.539 1.46875 420.227 1.46875C421.362 1.46875 422.253 1.75521 422.898 2.32812C423.549 2.89583 423.875 3.6875 423.875 4.70312C423.875 5.21354 423.711 5.69531 423.383 6.14844C423.06 6.59635 422.641 6.9349 422.125 7.16406C422.75 7.3776 423.224 7.71354 423.547 8.17188C423.875 8.63021 424.039 9.17708 424.039 9.8125C424.039 10.8333 423.688 11.6458 422.984 12.25C422.286 12.8542 421.367 13.1562 420.227 13.1562C419.133 13.1562 418.237 12.8646 417.539 12.2812C416.841 11.6979 416.492 10.9219 416.492 9.95312H418.391C418.391 10.4531 418.557 10.8594 418.891 11.1719C419.229 11.4844 419.682 11.6406 420.25 11.6406C420.839 11.6406 421.302 11.4844 421.641 11.1719C421.979 10.8594 422.148 10.4062 422.148 9.8125C422.148 9.21354 421.971 8.7526 421.617 8.42969C421.263 8.10677 420.737 7.94531 420.039 7.94531H418.922V6.44531Z" fill="#1F1E25"/>
<path d="M315.193 24.3945H311.08V26.9492H313.201C314.092 26.9609 314.787 27.1895 315.287 27.6348C315.787 28.0801 316.037 28.6855 316.037 29.4512C316.037 30.2207 315.785 30.834 315.281 31.291C314.777 31.748 314.09 31.9844 313.219 32H309.949V23.4688H315.193V24.3945ZM311.08 27.875V31.0801H313.137C313.695 31.0801 314.129 30.9316 314.438 30.6348C314.75 30.3379 314.906 29.9395 314.906 29.4395C314.906 28.959 314.756 28.5801 314.455 28.3027C314.158 28.0254 313.734 27.8828 313.184 27.875H311.08ZM320.021 32.1172C319.162 32.1172 318.463 31.8359 317.924 31.2734C317.385 30.707 317.115 29.9512 317.115 29.0059V28.8066C317.115 28.1777 317.234 27.6172 317.473 27.125C317.715 26.6289 318.051 26.2422 318.48 25.9648C318.914 25.6836 319.383 25.543 319.887 25.543C320.711 25.543 321.352 25.8145 321.809 26.3574C322.266 26.9004 322.494 27.6777 322.494 28.6895V29.1406H318.199C318.215 29.7656 318.396 30.2715 318.744 30.6582C319.096 31.041 319.541 31.2324 320.08 31.2324C320.463 31.2324 320.787 31.1543 321.053 30.998C321.318 30.8418 321.551 30.6348 321.75 30.377L322.412 30.8926C321.881 31.709 321.084 32.1172 320.021 32.1172ZM319.887 26.4336C319.449 26.4336 319.082 26.5938 318.785 26.9141C318.488 27.2305 318.305 27.6758 318.234 28.25H321.41V28.168C321.379 27.6172 321.23 27.1914 320.965 26.8906C320.699 26.5859 320.34 26.4336 319.887 26.4336ZM326.297 31.2324C326.684 31.2324 327.021 31.1152 327.311 30.8809C327.6 30.6465 327.76 30.3535 327.791 30.002H328.816C328.797 30.3652 328.672 30.7109 328.441 31.0391C328.211 31.3672 327.902 31.6289 327.516 31.8242C327.133 32.0195 326.727 32.1172 326.297 32.1172C325.434 32.1172 324.746 31.8301 324.234 31.2559C323.727 30.6777 323.473 29.8887 323.473 28.8887V28.707C323.473 28.0898 323.586 27.541 323.812 27.0605C324.039 26.5801 324.363 26.207 324.785 25.9414C325.211 25.6758 325.713 25.543 326.291 25.543C327.002 25.543 327.592 25.7559 328.061 26.1816C328.533 26.6074 328.785 27.1602 328.816 27.8398H327.791C327.76 27.4297 327.604 27.0938 327.322 26.832C327.045 26.5664 326.701 26.4336 326.291 26.4336C325.74 26.4336 325.312 26.6328 325.008 27.0312C324.707 27.4258 324.557 27.998 324.557 28.748V28.9531C324.557 29.6836 324.707 30.2461 325.008 30.6406C325.309 31.0352 325.738 31.2324 326.297 31.2324ZM335.221 32H334.137V26.5566H331.219V32H330.129V25.6602H335.221V32ZM342.158 25.6602V32H341.068V26.5566H338.912L338.783 28.9297C338.713 30.0195 338.529 30.7988 338.232 31.2676C337.939 31.7363 337.473 31.9805 336.832 32H336.398V31.0449L336.709 31.0215C337.061 30.9824 337.312 30.7793 337.465 30.4121C337.617 30.0449 337.715 29.3652 337.758 28.373L337.875 25.6602H342.158ZM347.812 32C347.75 31.875 347.699 31.6523 347.66 31.332C347.156 31.8555 346.555 32.1172 345.855 32.1172C345.23 32.1172 344.717 31.9414 344.314 31.5898C343.916 31.2344 343.717 30.7852 343.717 30.2422C343.717 29.582 343.967 29.0703 344.467 28.707C344.971 28.3398 345.678 28.1562 346.588 28.1562H347.643V27.6582C347.643 27.2793 347.529 26.9785 347.303 26.7559C347.076 26.5293 346.742 26.416 346.301 26.416C345.914 26.416 345.59 26.5137 345.328 26.709C345.066 26.9043 344.936 27.1406 344.936 27.418H343.846C343.846 27.1016 343.957 26.7969 344.18 26.5039C344.406 26.207 344.711 25.9727 345.094 25.8008C345.48 25.6289 345.904 25.543 346.365 25.543C347.096 25.543 347.668 25.7266 348.082 26.0938C348.496 26.457 348.711 26.959 348.727 27.5996V30.5176C348.727 31.0996 348.801 31.5625 348.949 31.9062V32H347.812ZM346.014 31.1738C346.354 31.1738 346.676 31.0859 346.98 30.9102C347.285 30.7344 347.506 30.5059 347.643 30.2246V28.9238H346.793C345.465 28.9238 344.801 29.3125 344.801 30.0898C344.801 30.4297 344.914 30.6953 345.141 30.8867C345.367 31.0781 345.658 31.1738 346.014 31.1738ZM355.043 26.5391H352.916V32H351.832V26.5391H349.746V25.6602H355.043V26.5391ZM361.277 32H360.193V29.293H357.281V32H356.191V25.6602H357.281V28.4082H360.193V25.6602H361.277V32ZM364.207 27.8457H365.854C366.572 27.8535 367.141 28.041 367.559 28.4082C367.977 28.7754 368.186 29.2734 368.186 29.9023C368.186 30.5352 367.971 31.043 367.541 31.4258C367.111 31.8086 366.533 32 365.807 32H363.123V25.6602H364.207V27.8457ZM370.447 32H369.357V25.6602H370.447V32ZM364.207 28.7305V31.1152H365.818C366.225 31.1152 366.539 31.0117 366.762 30.8047C366.984 30.5938 367.096 30.3066 367.096 29.9434C367.096 29.5918 366.986 29.3047 366.768 29.082C366.553 28.8555 366.25 28.7383 365.859 28.7305H364.207ZM376.441 25.6602H377.525V32H376.441V27.377L373.518 32H372.434V25.6602H373.518V30.2891L376.441 25.6602ZM376.734 23.3516C376.734 23.8242 376.572 24.2051 376.248 24.4941C375.928 24.7793 375.506 24.9219 374.982 24.9219C374.459 24.9219 374.035 24.7773 373.711 24.4883C373.387 24.1992 373.225 23.8203 373.225 23.3516H374.109C374.109 23.625 374.184 23.8398 374.332 23.9961C374.48 24.1484 374.697 24.2246 374.982 24.2246C375.256 24.2246 375.469 24.1484 375.621 23.9961C375.777 23.8438 375.855 23.6289 375.855 23.3516H376.734ZM382.189 31.1152L382.564 30.6523C382.986 30.1055 383.227 29.2852 383.285 28.1914L383.385 25.6602H387.469V31.1152H388.283V33.8633H387.199V32H382.775V33.8633H381.691L381.697 31.1152H382.189ZM383.473 31.1152H386.385V26.6621H384.434L384.369 28.1738C384.303 29.4355 384.004 30.416 383.473 31.1152ZM394.682 25.6602V32H393.592V26.5566H391.436L391.307 28.9297C391.236 30.0195 391.053 30.7988 390.756 31.2676C390.463 31.7363 389.996 31.9805 389.355 32H388.922V31.0449L389.232 31.0215C389.584 30.9824 389.836 30.7793 389.988 30.4121C390.141 30.0449 390.238 29.3652 390.281 28.373L390.398 25.6602H394.682ZM401.268 25.6602V32H400.178V29.5332H398.543L397.049 32H395.877L397.471 29.3691C397.064 29.2207 396.752 28.9922 396.533 28.6836C396.318 28.3711 396.211 28.0078 396.211 27.5938C396.211 27.0156 396.428 26.5508 396.861 26.1992C397.295 25.8438 397.875 25.6641 398.602 25.6602H401.268ZM397.301 27.6055C397.301 27.9141 397.406 28.1641 397.617 28.3555C397.828 28.543 398.107 28.6387 398.455 28.6426H400.178V26.5391H398.619C398.217 26.5391 397.896 26.6387 397.658 26.8379C397.42 27.0332 397.301 27.2891 397.301 27.6055ZM406.084 32V25.6602H408.557C409.4 25.6602 410.047 25.8086 410.496 26.1055C410.949 26.3984 411.176 26.8301 411.176 27.4004C411.176 27.6934 411.088 27.959 410.912 28.1973C410.736 28.4316 410.477 28.6113 410.133 28.7363C410.516 28.8262 410.822 29.002 411.053 29.2637C411.287 29.5254 411.404 29.8379 411.404 30.2012C411.404 30.7832 411.189 31.2285 410.76 31.5371C410.334 31.8457 409.73 32 408.949 32H406.084ZM407.168 29.2168V31.127H408.961C409.414 31.127 409.752 31.043 409.975 30.875C410.201 30.707 410.314 30.4707 410.314 30.166C410.314 29.5332 409.85 29.2168 408.92 29.2168H407.168ZM407.168 28.3496H408.568C409.584 28.3496 410.092 28.0527 410.092 27.459C410.092 26.8652 409.611 26.5586 408.65 26.5391H407.168V28.3496ZM415.383 31.2324C415.77 31.2324 416.107 31.1152 416.396 30.8809C416.686 30.6465 416.846 30.3535 416.877 30.002H417.902C417.883 30.3652 417.758 30.7109 417.527 31.0391C417.297 31.3672 416.988 31.6289 416.602 31.8242C416.219 32.0195 415.812 32.1172 415.383 32.1172C414.52 32.1172 413.832 31.8301 413.32 31.2559C412.812 30.6777 412.559 29.8887 412.559 28.8887V28.707C412.559 28.0898 412.672 27.541 412.898 27.0605C413.125 26.5801 413.449 26.207 413.871 25.9414C414.297 25.6758 414.799 25.543 415.377 25.543C416.088 25.543 416.678 25.7559 417.146 26.1816C417.619 26.6074 417.871 27.1602 417.902 27.8398H416.877C416.846 27.4297 416.689 27.0938 416.408 26.832C416.131 26.5664 415.787 26.4336 415.377 26.4336C414.826 26.4336 414.398 26.6328 414.094 27.0312C413.793 27.4258 413.643 27.998 413.643 28.748V28.9531C413.643 29.6836 413.793 30.2461 414.094 30.6406C414.395 31.0352 414.824 31.2324 415.383 31.2324ZM421.752 32.1172C420.893 32.1172 420.193 31.8359 419.654 31.2734C419.115 30.707 418.846 29.9512 418.846 29.0059V28.8066C418.846 28.1777 418.965 27.6172 419.203 27.125C419.445 26.6289 419.781 26.2422 420.211 25.9648C420.645 25.6836 421.113 25.543 421.617 25.543C422.441 25.543 423.082 25.8145 423.539 26.3574C423.996 26.9004 424.225 27.6777 424.225 28.6895V29.1406H419.93C419.945 29.7656 420.127 30.2715 420.475 30.6582C420.826 31.041 421.271 31.2324 421.811 31.2324C422.193 31.2324 422.518 31.1543 422.783 30.998C423.049 30.8418 423.281 30.6348 423.48 30.377L424.143 30.8926C423.611 31.709 422.814 32.1172 421.752 32.1172ZM421.617 26.4336C421.18 26.4336 420.812 26.5938 420.516 26.9141C420.219 27.2305 420.035 27.6758 419.965 28.25H423.141V28.168C423.109 27.6172 422.961 27.1914 422.695 26.8906C422.43 26.5859 422.07 26.4336 421.617 26.4336ZM427.611 27.9746L429.018 25.6602H430.283L428.209 28.7949L430.348 32H429.094L427.629 29.627L426.164 32H424.904L427.043 28.7949L424.969 25.6602H426.223L427.611 27.9746ZM313.916 43.5566H310.992V49H309.902V42.6602H313.916V43.5566ZM314.455 45.7715C314.455 45.1504 314.576 44.5918 314.818 44.0957C315.064 43.5996 315.404 43.2168 315.838 42.9473C316.275 42.6777 316.773 42.543 317.332 42.543C318.195 42.543 318.893 42.8418 319.424 43.4395C319.959 44.0371 320.227 44.832 320.227 45.8242V45.9004C320.227 46.5176 320.107 47.0723 319.869 47.5645C319.635 48.0527 319.297 48.4336 318.855 48.707C318.418 48.9805 317.914 49.1172 317.344 49.1172C316.484 49.1172 315.787 48.8184 315.252 48.2207C314.721 47.623 314.455 46.832 314.455 45.8477V45.7715ZM315.545 45.9004C315.545 46.6035 315.707 47.168 316.031 47.5938C316.359 48.0195 316.797 48.2324 317.344 48.2324C317.895 48.2324 318.332 48.0176 318.656 47.5879C318.98 47.1543 319.143 46.5488 319.143 45.7715C319.143 45.0762 318.977 44.5137 318.645 44.084C318.316 43.6504 317.879 43.4336 317.332 43.4336C316.797 43.4336 316.365 43.6465 316.037 44.0723C315.709 44.498 315.545 45.1074 315.545 45.9004ZM326.941 45.9004C326.941 46.8652 326.721 47.6426 326.279 48.2324C325.838 48.8223 325.24 49.1172 324.486 49.1172C323.717 49.1172 323.111 48.873 322.67 48.3848V51.4375H321.586V42.6602H322.576L322.629 43.3633C323.07 42.8164 323.684 42.543 324.469 42.543C325.23 42.543 325.832 42.8301 326.273 43.4043C326.719 43.9785 326.941 44.7773 326.941 45.8008V45.9004ZM325.857 45.7773C325.857 45.0625 325.705 44.498 325.4 44.084C325.096 43.6699 324.678 43.4629 324.146 43.4629C323.49 43.4629 322.998 43.7539 322.67 44.3359V47.3652C322.994 47.9434 323.49 48.2324 324.158 48.2324C324.678 48.2324 325.09 48.0273 325.395 47.6172C325.703 47.2031 325.857 46.5898 325.857 45.7773ZM328.037 45.7715C328.037 45.1504 328.158 44.5918 328.4 44.0957C328.646 43.5996 328.986 43.2168 329.42 42.9473C329.857 42.6777 330.355 42.543 330.914 42.543C331.777 42.543 332.475 42.8418 333.006 43.4395C333.541 44.0371 333.809 44.832 333.809 45.8242V45.9004C333.809 46.5176 333.689 47.0723 333.451 47.5645C333.217 48.0527 332.879 48.4336 332.438 48.707C332 48.9805 331.496 49.1172 330.926 49.1172C330.066 49.1172 329.369 48.8184 328.834 48.2207C328.303 47.623 328.037 46.832 328.037 45.8477V45.7715ZM329.127 45.9004C329.127 46.6035 329.289 47.168 329.613 47.5938C329.941 48.0195 330.379 48.2324 330.926 48.2324C331.477 48.2324 331.914 48.0176 332.238 47.5879C332.562 47.1543 332.725 46.5488 332.725 45.7715C332.725 45.0762 332.559 44.5137 332.227 44.084C331.898 43.6504 331.461 43.4336 330.914 43.4336C330.379 43.4336 329.947 43.6465 329.619 44.0723C329.291 44.498 329.127 45.1074 329.127 45.9004ZM334.693 48.1152L335.068 47.6523C335.49 47.1055 335.73 46.2852 335.789 45.1914L335.889 42.6602H339.973V48.1152H340.787V50.8633H339.703V49H335.279V50.8633H334.195L334.201 48.1152H334.693ZM335.977 48.1152H338.889V43.6621H336.938L336.873 45.1738C336.807 46.4355 336.508 47.416 335.977 48.1152ZM341.701 45.7715C341.701 45.1504 341.822 44.5918 342.064 44.0957C342.311 43.5996 342.65 43.2168 343.084 42.9473C343.521 42.6777 344.02 42.543 344.578 42.543C345.441 42.543 346.139 42.8418 346.67 43.4395C347.205 44.0371 347.473 44.832 347.473 45.8242V45.9004C347.473 46.5176 347.354 47.0723 347.115 47.5645C346.881 48.0527 346.543 48.4336 346.102 48.707C345.664 48.9805 345.16 49.1172 344.59 49.1172C343.73 49.1172 343.033 48.8184 342.498 48.2207C341.967 47.623 341.701 46.832 341.701 45.8477V45.7715ZM342.791 45.9004C342.791 46.6035 342.953 47.168 343.277 47.5938C343.605 48.0195 344.043 48.2324 344.59 48.2324C345.141 48.2324 345.578 48.0176 345.902 47.5879C346.227 47.1543 346.389 46.5488 346.389 45.7715C346.389 45.0762 346.223 44.5137 345.891 44.084C345.562 43.6504 345.125 43.4336 344.578 43.4336C344.043 43.4336 343.611 43.6465 343.283 44.0723C342.955 44.498 342.791 45.1074 342.791 45.9004ZM348.932 49V42.6602H351.404C352.248 42.6602 352.895 42.8086 353.344 43.1055C353.797 43.3984 354.023 43.8301 354.023 44.4004C354.023 44.6934 353.936 44.959 353.76 45.1973C353.584 45.4316 353.324 45.6113 352.98 45.7363C353.363 45.8262 353.67 46.002 353.9 46.2637C354.135 46.5254 354.252 46.8379 354.252 47.2012C354.252 47.7832 354.037 48.2285 353.607 48.5371C353.182 48.8457 352.578 49 351.797 49H348.932ZM350.016 46.2168V48.127H351.809C352.262 48.127 352.6 48.043 352.822 47.875C353.049 47.707 353.162 47.4707 353.162 47.166C353.162 46.5332 352.697 46.2168 351.768 46.2168H350.016ZM350.016 45.3496H351.416C352.432 45.3496 352.939 45.0527 352.939 44.459C352.939 43.8652 352.459 43.5586 351.498 43.5391H350.016V45.3496ZM359.959 45.6602V49H358.834V40.4688H361.98C362.914 40.4688 363.645 40.707 364.172 41.1836C364.703 41.6602 364.969 42.291 364.969 43.0762C364.969 43.9043 364.709 44.543 364.189 44.9922C363.674 45.4375 362.934 45.6602 361.969 45.6602H359.959ZM359.959 44.7402H361.98C362.582 44.7402 363.043 44.5996 363.363 44.3184C363.684 44.0332 363.844 43.623 363.844 43.0879C363.844 42.5801 363.684 42.1738 363.363 41.8691C363.043 41.5645 362.604 41.4062 362.045 41.3945H359.959V44.7402ZM365.865 45.7715C365.865 45.1504 365.986 44.5918 366.229 44.0957C366.475 43.5996 366.814 43.2168 367.248 42.9473C367.686 42.6777 368.184 42.543 368.742 42.543C369.605 42.543 370.303 42.8418 370.834 43.4395C371.369 44.0371 371.637 44.832 371.637 45.8242V45.9004C371.637 46.5176 371.518 47.0723 371.279 47.5645C371.045 48.0527 370.707 48.4336 370.266 48.707C369.828 48.9805 369.324 49.1172 368.754 49.1172C367.895 49.1172 367.197 48.8184 366.662 48.2207C366.131 47.623 365.865 46.832 365.865 45.8477V45.7715ZM366.955 45.9004C366.955 46.6035 367.117 47.168 367.441 47.5938C367.77 48.0195 368.207 48.2324 368.754 48.2324C369.305 48.2324 369.742 48.0176 370.066 47.5879C370.391 47.1543 370.553 46.5488 370.553 45.7715C370.553 45.0762 370.387 44.5137 370.055 44.084C369.727 43.6504 369.289 43.4336 368.742 43.4336C368.207 43.4336 367.775 43.6465 367.447 44.0723C367.119 44.498 366.955 45.1074 366.955 45.9004ZM375.539 48.2324C375.926 48.2324 376.264 48.1152 376.553 47.8809C376.842 47.6465 377.002 47.3535 377.033 47.002H378.059C378.039 47.3652 377.914 47.7109 377.684 48.0391C377.453 48.3672 377.145 48.6289 376.758 48.8242C376.375 49.0195 375.969 49.1172 375.539 49.1172C374.676 49.1172 373.988 48.8301 373.477 48.2559C372.969 47.6777 372.715 46.8887 372.715 45.8887V45.707C372.715 45.0898 372.828 44.541 373.055 44.0605C373.281 43.5801 373.605 43.207 374.027 42.9414C374.453 42.6758 374.955 42.543 375.533 42.543C376.244 42.543 376.834 42.7559 377.303 43.1816C377.775 43.6074 378.027 44.1602 378.059 44.8398H377.033C377.002 44.4297 376.846 44.0938 376.564 43.832C376.287 43.5664 375.943 43.4336 375.533 43.4336C374.982 43.4336 374.555 43.6328 374.25 44.0312C373.949 44.4258 373.799 44.998 373.799 45.748V45.9531C373.799 46.6836 373.949 47.2461 374.25 47.6406C374.551 48.0352 374.98 48.2324 375.539 48.2324ZM381.82 48.2324C382.207 48.2324 382.545 48.1152 382.834 47.8809C383.123 47.6465 383.283 47.3535 383.314 47.002H384.34C384.32 47.3652 384.195 47.7109 383.965 48.0391C383.734 48.3672 383.426 48.6289 383.039 48.8242C382.656 49.0195 382.25 49.1172 381.82 49.1172C380.957 49.1172 380.27 48.8301 379.758 48.2559C379.25 47.6777 378.996 46.8887 378.996 45.8887V45.707C378.996 45.0898 379.109 44.541 379.336 44.0605C379.562 43.5801 379.887 43.207 380.309 42.9414C380.734 42.6758 381.236 42.543 381.814 42.543C382.525 42.543 383.115 42.7559 383.584 43.1816C384.057 43.6074 384.309 44.1602 384.34 44.8398H383.314C383.283 44.4297 383.127 44.0938 382.846 43.832C382.568 43.5664 382.225 43.4336 381.814 43.4336C381.264 43.4336 380.836 43.6328 380.531 44.0312C380.23 44.4258 380.08 44.998 380.08 45.748V45.9531C380.08 46.6836 380.23 47.2461 380.531 47.6406C380.832 48.0352 381.262 48.2324 381.82 48.2324ZM389.66 42.6602H390.744V49H389.66V44.377L386.736 49H385.652V42.6602H386.736V47.2891L389.66 42.6602ZM396.586 42.6602H397.67V49H396.586V44.377L393.662 49H392.578V42.6602H393.662V47.2891L396.586 42.6602Z" fill="#707C87"/>
<path d="M31.5938 6.40625L29.2109 5.71875L29.6406 4.39844L32 5.3125L31.8828 2.625H33.2812L33.1641 5.35938L35.4844 4.46094L35.9062 5.80469L33.4844 6.49219L35.0469 8.57031L33.9141 9.39844L32.5078 7.14844L31.1172 9.32812L29.9766 8.53125L31.5938 6.40625ZM44.3438 9.21094C44.3438 10.8464 44.0365 12.0807 43.4219 12.9141C42.8125 13.7422 41.8828 14.1562 40.6328 14.1562C39.4036 14.1562 38.4766 13.7526 37.8516 12.9453C37.2318 12.1328 36.9141 10.9323 36.8984 9.34375V7.375C36.8984 5.73958 37.2031 4.51302 37.8125 3.69531C38.4271 2.8776 39.362 2.46875 40.6172 2.46875C41.862 2.46875 42.7891 2.86719 43.3984 3.66406C44.013 4.46094 44.3281 5.65365 44.3438 7.24219V9.21094ZM42.4453 7.08594C42.4453 6.01823 42.2995 5.23698 42.0078 4.74219C41.7161 4.24219 41.2526 3.99219 40.6172 3.99219C39.9974 3.99219 39.5417 4.22917 39.25 4.70312C38.9583 5.17188 38.8047 5.90625 38.7891 6.90625V9.48438C38.7891 10.5469 38.9375 11.3385 39.2344 11.8594C39.5312 12.3802 39.9974 12.6406 40.6328 12.6406C41.2422 12.6406 41.6927 12.401 41.9844 11.9219C42.276 11.4375 42.4297 10.6823 42.4453 9.65625V7.08594ZM51.4062 9.24219C50.7708 9.91406 50.0286 10.25 49.1797 10.25C48.1797 10.25 47.3828 9.90104 46.7891 9.20312C46.1953 8.5 45.8984 7.57812 45.8984 6.4375C45.8984 5.6875 46.0495 5.00781 46.3516 4.39844C46.6536 3.78906 47.0833 3.3151 47.6406 2.97656C48.1979 2.63802 48.8438 2.46875 49.5781 2.46875C50.724 2.46875 51.6328 2.89583 52.3047 3.75C52.9766 4.60417 53.3125 5.7474 53.3125 7.17969V7.71094C53.3125 9.76302 52.849 11.3281 51.9219 12.4062C50.9948 13.4844 49.612 14.0312 47.7734 14.0469H47.5469V12.4766H47.8203C48.9401 12.4609 49.7995 12.1927 50.3984 11.6719C50.9974 11.1458 51.3333 10.3359 51.4062 9.24219ZM49.5781 8.76562C49.9583 8.76562 50.3151 8.65625 50.6484 8.4375C50.9818 8.21875 51.2396 7.91667 51.4219 7.53125V6.78906C51.4219 5.95052 51.25 5.27604 50.9062 4.76562C50.5625 4.25521 50.1172 4 49.5703 4C49.0234 4 48.5859 4.22656 48.2578 4.67969C47.9349 5.1276 47.7734 5.69531 47.7734 6.38281C47.7734 7.09635 47.9375 7.67188 48.2656 8.10938C48.5938 8.54688 49.0312 8.76562 49.5781 8.76562ZM62.5312 9.21094C62.5312 10.8464 62.224 12.0807 61.6094 12.9141C61 13.7422 60.0703 14.1562 58.8203 14.1562C57.5911 14.1562 56.6641 13.7526 56.0391 12.9453C55.4193 12.1328 55.1016 10.9323 55.0859 9.34375V7.375C55.0859 5.73958 55.3906 4.51302 56 3.69531C56.6146 2.8776 57.5495 2.46875 58.8047 2.46875C60.0495 2.46875 60.9766 2.86719 61.5859 3.66406C62.2005 4.46094 62.5156 5.65365 62.5312 7.24219V9.21094ZM60.6328 7.08594C60.6328 6.01823 60.487 5.23698 60.1953 4.74219C59.9036 4.24219 59.4401 3.99219 58.8047 3.99219C58.1849 3.99219 57.7292 4.22917 57.4375 4.70312C57.1458 5.17188 56.9922 5.90625 56.9766 6.90625V9.48438C56.9766 10.5469 57.125 11.3385 57.4219 11.8594C57.7188 12.3802 58.1849 12.6406 58.8203 12.6406C59.4297 12.6406 59.8802 12.401 60.1719 11.9219C60.4635 11.4375 60.6172 10.6823 60.6328 9.65625V7.08594ZM70.6328 9.94531H72.0469V11.4688H70.6328V14H68.7344V11.4688H63.8203L63.7656 10.3125L68.6719 2.625H70.6328V9.94531ZM65.7578 9.94531H68.7344V5.19531L68.5938 5.44531L65.7578 9.94531Z" fill="#1F1E25"/>
<path d="M35.1934 25.3945H31.0801V27.9492H33.2012C34.0918 27.9609 34.7871 28.1895 35.2871 28.6348C35.7871 29.0801 36.0371 29.6855 36.0371 30.4512C36.0371 31.2207 35.7852 31.834 35.2812 32.291C34.7773 32.748 34.0898 32.9844 33.2188 33H29.9492V24.4688H35.1934V25.3945ZM31.0801 28.875V32.0801H33.1367C33.6953 32.0801 34.1289 31.9316 34.4375 31.6348C34.75 31.3379 34.9062 30.9395 34.9062 30.4395C34.9062 29.959 34.7559 29.5801 34.4551 29.3027C34.1582 29.0254 33.7344 28.8828 33.1836 28.875H31.0801ZM40.0215 33.1172C39.1621 33.1172 38.4629 32.8359 37.9238 32.2734C37.3848 31.707 37.1152 30.9512 37.1152 30.0059V29.8066C37.1152 29.1777 37.2344 28.6172 37.4727 28.125C37.7148 27.6289 38.0508 27.2422 38.4805 26.9648C38.9141 26.6836 39.3828 26.543 39.8867 26.543C40.7109 26.543 41.3516 26.8145 41.8086 27.3574C42.2656 27.9004 42.4941 28.6777 42.4941 29.6895V30.1406H38.1992C38.2148 30.7656 38.3965 31.2715 38.7441 31.6582C39.0957 32.041 39.541 32.2324 40.0801 32.2324C40.4629 32.2324 40.7871 32.1543 41.0527 31.998C41.3184 31.8418 41.5508 31.6348 41.75 31.377L42.4121 31.8926C41.8809 32.709 41.084 33.1172 40.0215 33.1172ZM39.8867 27.4336C39.4492 27.4336 39.082 27.5938 38.7852 27.9141C38.4883 28.2305 38.3047 28.6758 38.2344 29.25H41.4102V29.168C41.3789 28.6172 41.2305 28.1914 40.9648 27.8906C40.6992 27.5859 40.3398 27.4336 39.8867 27.4336ZM46.2969 32.2324C46.6836 32.2324 47.0215 32.1152 47.3105 31.8809C47.5996 31.6465 47.7598 31.3535 47.791 31.002H48.8164C48.7969 31.3652 48.6719 31.7109 48.4414 32.0391C48.2109 32.3672 47.9023 32.6289 47.5156 32.8242C47.1328 33.0195 46.7266 33.1172 46.2969 33.1172C45.4336 33.1172 44.7461 32.8301 44.2344 32.2559C43.7266 31.6777 43.4727 30.8887 43.4727 29.8887V29.707C43.4727 29.0898 43.5859 28.541 43.8125 28.0605C44.0391 27.5801 44.3633 27.207 44.7852 26.9414C45.2109 26.6758 45.7129 26.543 46.291 26.543C47.002 26.543 47.5918 26.7559 48.0605 27.1816C48.5332 27.6074 48.7852 28.1602 48.8164 28.8398H47.791C47.7598 28.4297 47.6035 28.0938 47.3223 27.832C47.0449 27.5664 46.7012 27.4336 46.291 27.4336C45.7402 27.4336 45.3125 27.6328 45.0078 28.0312C44.707 28.4258 44.5566 28.998 44.5566 29.748V29.9531C44.5566 30.6836 44.707 31.2461 45.0078 31.6406C45.3086 32.0352 45.7383 32.2324 46.2969 32.2324ZM55.2207 33H54.1367V27.5566H51.2188V33H50.1289V26.6602H55.2207V33ZM62.1582 26.6602V33H61.0684V27.5566H58.9121L58.7832 29.9297C58.7129 31.0195 58.5293 31.7988 58.2324 32.2676C57.9395 32.7363 57.4727 32.9805 56.832 33H56.3984V32.0449L56.709 32.0215C57.0605 31.9824 57.3125 31.7793 57.4648 31.4121C57.6172 31.0449 57.7148 30.3652 57.7578 29.373L57.875 26.6602H62.1582ZM67.8125 33C67.75 32.875 67.6992 32.6523 67.6602 32.332C67.1562 32.8555 66.5547 33.1172 65.8555 33.1172C65.2305 33.1172 64.7168 32.9414 64.3145 32.5898C63.916 32.2344 63.7168 31.7852 63.7168 31.2422C63.7168 30.582 63.9668 30.0703 64.4668 29.707C64.9707 29.3398 65.6777 29.1562 66.5879 29.1562H67.6426V28.6582C67.6426 28.2793 67.5293 27.9785 67.3027 27.7559C67.0762 27.5293 66.7422 27.416 66.3008 27.416C65.9141 27.416 65.5898 27.5137 65.3281 27.709C65.0664 27.9043 64.9355 28.1406 64.9355 28.418H63.8457C63.8457 28.1016 63.957 27.7969 64.1797 27.5039C64.4062 27.207 64.7109 26.9727 65.0938 26.8008C65.4805 26.6289 65.9043 26.543 66.3652 26.543C67.0957 26.543 67.668 26.7266 68.082 27.0938C68.4961 27.457 68.7109 27.959 68.7266 28.5996V31.5176C68.7266 32.0996 68.8008 32.5625 68.9492 32.9062V33H67.8125ZM66.0137 32.1738C66.3535 32.1738 66.6758 32.0859 66.9805 31.9102C67.2852 31.7344 67.5059 31.5059 67.6426 31.2246V29.9238H66.793C65.4648 29.9238 64.8008 30.3125 64.8008 31.0898C64.8008 31.4297 64.9141 31.6953 65.1406 31.8867C65.3672 32.0781 65.6582 32.1738 66.0137 32.1738ZM75.043 27.5391H72.916V33H71.832V27.5391H69.7461V26.6602H75.043V27.5391ZM81.2773 33H80.1934V30.293H77.2812V33H76.1914V26.6602H77.2812V29.4082H80.1934V26.6602H81.2773V33ZM82.7363 29.7715C82.7363 29.1504 82.8574 28.5918 83.0996 28.0957C83.3457 27.5996 83.6855 27.2168 84.1191 26.9473C84.5566 26.6777 85.0547 26.543 85.6133 26.543C86.4766 26.543 87.1738 26.8418 87.7051 27.4395C88.2402 28.0371 88.5078 28.832 88.5078 29.8242V29.9004C88.5078 30.5176 88.3887 31.0723 88.1504 31.5645C87.916 32.0527 87.5781 32.4336 87.1367 32.707C86.6992 32.9805 86.1953 33.1172 85.625 33.1172C84.7656 33.1172 84.0684 32.8184 83.5332 32.2207C83.002 31.623 82.7363 30.832 82.7363 29.8477V29.7715ZM83.8262 29.9004C83.8262 30.6035 83.9883 31.168 84.3125 31.5938C84.6406 32.0195 85.0781 32.2324 85.625 32.2324C86.1758 32.2324 86.6133 32.0176 86.9375 31.5879C87.2617 31.1543 87.4238 30.5488 87.4238 29.7715C87.4238 29.0762 87.2578 28.5137 86.9258 28.084C86.5977 27.6504 86.1602 27.4336 85.6133 27.4336C85.0781 27.4336 84.6465 27.6465 84.3184 28.0723C83.9902 28.498 83.8262 29.1074 83.8262 29.9004ZM92.791 32.1152L93.166 31.6523C93.5879 31.1055 93.8281 30.2852 93.8867 29.1914L93.9863 26.6602H98.0703V32.1152H98.8848V34.8633H97.8008V33H93.377V34.8633H92.293L92.2988 32.1152H92.791ZM94.0742 32.1152H96.9863V27.6621H95.0352L94.9707 29.1738C94.9043 30.4355 94.6055 31.416 94.0742 32.1152ZM105.283 26.6602V33H104.193V27.5566H102.037L101.908 29.9297C101.838 31.0195 101.654 31.7988 101.357 32.2676C101.064 32.7363 100.598 32.9805 99.957 33H99.5234V32.0449L99.834 32.0215C100.186 31.9824 100.438 31.7793 100.59 31.4121C100.742 31.0449 100.84 30.3652 100.883 29.373L101 26.6602H105.283ZM111.869 26.6602V33H110.779V30.5332H109.145L107.65 33H106.479L108.072 30.3691C107.666 30.2207 107.354 29.9922 107.135 29.6836C106.92 29.3711 106.812 29.0078 106.812 28.5938C106.812 28.0156 107.029 27.5508 107.463 27.1992C107.896 26.8438 108.477 26.6641 109.203 26.6602H111.869ZM107.902 28.6055C107.902 28.9141 108.008 29.1641 108.219 29.3555C108.43 29.543 108.709 29.6387 109.057 29.6426H110.779V27.5391H109.221C108.818 27.5391 108.498 27.6387 108.26 27.8379C108.021 28.0332 107.902 28.2891 107.902 28.6055ZM120.5 33C120.438 32.875 120.387 32.6523 120.348 32.332C119.844 32.8555 119.242 33.1172 118.543 33.1172C117.918 33.1172 117.404 32.9414 117.002 32.5898C116.604 32.2344 116.404 31.7852 116.404 31.2422C116.404 30.582 116.654 30.0703 117.154 29.707C117.658 29.3398 118.365 29.1562 119.275 29.1562H120.33V28.6582C120.33 28.2793 120.217 27.9785 119.99 27.7559C119.764 27.5293 119.43 27.416 118.988 27.416C118.602 27.416 118.277 27.5137 118.016 27.709C117.754 27.9043 117.623 28.1406 117.623 28.418H116.533C116.533 28.1016 116.645 27.7969 116.867 27.5039C117.094 27.207 117.398 26.9727 117.781 26.8008C118.168 26.6289 118.592 26.543 119.053 26.543C119.783 26.543 120.355 26.7266 120.77 27.0938C121.184 27.457 121.398 27.959 121.414 28.5996V31.5176C121.414 32.0996 121.488 32.5625 121.637 32.9062V33H120.5ZM118.701 32.1738C119.041 32.1738 119.363 32.0859 119.668 31.9102C119.973 31.7344 120.193 31.5059 120.33 31.2246V29.9238H119.48C118.152 29.9238 117.488 30.3125 117.488 31.0898C117.488 31.4297 117.602 31.6953 117.828 31.8867C118.055 32.0781 118.346 32.1738 118.701 32.1738ZM125.896 27.0234C126.693 27.0234 127.33 27.291 127.807 27.8262C128.287 28.3574 128.527 29.0586 128.527 29.9297V30.0293C128.527 30.627 128.412 31.1621 128.182 31.6348C127.951 32.1035 127.619 32.4688 127.186 32.7305C126.756 32.9883 126.26 33.1172 125.697 33.1172C124.846 33.1172 124.16 32.834 123.641 32.2676C123.121 31.6973 122.861 30.9336 122.861 29.9766V29.4492C122.861 28.1172 123.107 27.0586 123.6 26.2734C124.096 25.4883 124.826 25.0098 125.791 24.8379C126.338 24.7402 126.707 24.6211 126.898 24.4805C127.09 24.3398 127.186 24.1465 127.186 23.9004H128.076C128.076 24.3887 127.965 24.7695 127.742 25.043C127.523 25.3164 127.172 25.5098 126.688 25.623L125.879 25.8047C125.234 25.957 124.75 26.2148 124.426 26.5781C124.105 26.9375 123.896 27.418 123.799 28.0195C124.373 27.3555 125.072 27.0234 125.896 27.0234ZM125.686 27.9141C125.154 27.9141 124.732 28.0938 124.42 28.4531C124.107 28.8086 123.951 29.3027 123.951 29.9355V30.0293C123.951 30.709 124.107 31.248 124.42 31.6465C124.736 32.041 125.162 32.2383 125.697 32.2383C126.236 32.2383 126.662 32.0391 126.975 31.6406C127.287 31.2422 127.443 30.6602 127.443 29.8945C127.443 29.2969 127.285 28.8184 126.969 28.459C126.656 28.0957 126.229 27.9141 125.686 27.9141ZM129.459 29.7715C129.459 29.1504 129.58 28.5918 129.822 28.0957C130.068 27.5996 130.408 27.2168 130.842 26.9473C131.279 26.6777 131.777 26.543 132.336 26.543C133.199 26.543 133.896 26.8418 134.428 27.4395C134.963 28.0371 135.23 28.832 135.23 29.8242V29.9004C135.23 30.5176 135.111 31.0723 134.873 31.5645C134.639 32.0527 134.301 32.4336 133.859 32.707C133.422 32.9805 132.918 33.1172 132.348 33.1172C131.488 33.1172 130.791 32.8184 130.256 32.2207C129.725 31.623 129.459 30.832 129.459 29.8477V29.7715ZM130.549 29.9004C130.549 30.6035 130.711 31.168 131.035 31.5938C131.363 32.0195 131.801 32.2324 132.348 32.2324C132.898 32.2324 133.336 32.0176 133.66 31.5879C133.984 31.1543 134.146 30.5488 134.146 29.7715C134.146 29.0762 133.98 28.5137 133.648 28.084C133.32 27.6504 132.883 27.4336 132.336 27.4336C131.801 27.4336 131.369 27.6465 131.041 28.0723C130.713 28.498 130.549 29.1074 130.549 29.9004ZM141.77 33H140.686V30.293H137.773V33H136.684V26.6602H137.773V29.4082H140.686V26.6602H141.77V33ZM146.146 33.1172C145.287 33.1172 144.588 32.8359 144.049 32.2734C143.51 31.707 143.24 30.9512 143.24 30.0059V29.8066C143.24 29.1777 143.359 28.6172 143.598 28.125C143.84 27.6289 144.176 27.2422 144.605 26.9648C145.039 26.6836 145.508 26.543 146.012 26.543C146.836 26.543 147.477 26.8145 147.934 27.3574C148.391 27.9004 148.619 28.6777 148.619 29.6895V30.1406H144.324C144.34 30.7656 144.521 31.2715 144.869 31.6582C145.221 32.041 145.666 32.2324 146.205 32.2324C146.588 32.2324 146.912 32.1543 147.178 31.998C147.443 31.8418 147.676 31.6348 147.875 31.377L148.537 31.8926C148.006 32.709 147.209 33.1172 146.146 33.1172ZM146.012 27.4336C145.574 27.4336 145.207 27.5938 144.91 27.9141C144.613 28.2305 144.43 28.6758 144.359 29.25H147.535V29.168C147.504 28.6172 147.355 28.1914 147.09 27.8906C146.824 27.5859 146.465 27.4336 146.012 27.4336ZM155.059 33H153.975V30.293H151.062V33H149.973V26.6602H151.062V29.4082H153.975V26.6602H155.059V33ZM161.516 27.5391H159.389V33H158.305V27.5391H156.219V26.6602H161.516V27.5391ZM162.037 29.7715C162.037 29.1504 162.158 28.5918 162.4 28.0957C162.646 27.5996 162.986 27.2168 163.42 26.9473C163.857 26.6777 164.355 26.543 164.914 26.543C165.777 26.543 166.475 26.8418 167.006 27.4395C167.541 28.0371 167.809 28.832 167.809 29.8242V29.9004C167.809 30.5176 167.689 31.0723 167.451 31.5645C167.217 32.0527 166.879 32.4336 166.438 32.707C166 32.9805 165.496 33.1172 164.926 33.1172C164.066 33.1172 163.369 32.8184 162.834 32.2207C162.303 31.623 162.037 30.832 162.037 29.8477V29.7715ZM163.127 29.9004C163.127 30.6035 163.289 31.168 163.613 31.5938C163.941 32.0195 164.379 32.2324 164.926 32.2324C165.477 32.2324 165.914 32.0176 166.238 31.5879C166.562 31.1543 166.725 30.5488 166.725 29.7715C166.725 29.0762 166.559 28.5137 166.227 28.084C165.898 27.6504 165.461 27.4336 164.914 27.4336C164.379 27.4336 163.947 27.6465 163.619 28.0723C163.291 28.498 163.127 29.1074 163.127 29.9004ZM169.268 33V26.6602H171.74C172.584 26.6602 173.23 26.8086 173.68 27.1055C174.133 27.3984 174.359 27.8301 174.359 28.4004C174.359 28.6934 174.271 28.959 174.096 29.1973C173.92 29.4316 173.66 29.6113 173.316 29.7363C173.699 29.8262 174.006 30.002 174.236 30.2637C174.471 30.5254 174.588 30.8379 174.588 31.2012C174.588 31.7832 174.373 32.2285 173.943 32.5371C173.518 32.8457 172.914 33 172.133 33H169.268ZM170.352 30.2168V32.127H172.145C172.598 32.127 172.936 32.043 173.158 31.875C173.385 31.707 173.498 31.4707 173.498 31.166C173.498 30.5332 173.033 30.2168 172.104 30.2168H170.352ZM170.352 29.3496H171.752C172.768 29.3496 173.275 29.0527 173.275 28.459C173.275 27.8652 172.795 27.5586 171.834 27.5391H170.352V29.3496ZM31.4434 41.4688L34.2324 48.4297L37.0215 41.4688H38.4805V50H37.3555V46.6777L37.4609 43.0918L34.6602 50H33.7988L31.0039 43.1094L31.1152 46.6777V50H29.9902V41.4688H31.4434ZM46.1855 42.3945H43.4434V50H42.3242V42.3945H39.5879V41.4688H46.1855V42.3945ZM53.5625 47.293C53.457 48.1953 53.123 48.8926 52.5605 49.3848C52.002 49.873 51.2578 50.1172 50.3281 50.1172C49.3203 50.1172 48.5117 49.7559 47.9023 49.0332C47.2969 48.3105 46.9941 47.3438 46.9941 46.1328V45.3125C46.9941 44.5195 47.1348 43.8223 47.416 43.2207C47.7012 42.6191 48.1035 42.1582 48.623 41.8379C49.1426 41.5137 49.7441 41.3516 50.4277 41.3516C51.334 41.3516 52.0605 41.6055 52.6074 42.1133C53.1543 42.6172 53.4727 43.3164 53.5625 44.2109H52.4316C52.334 43.5312 52.1211 43.0391 51.793 42.7344C51.4688 42.4297 51.0137 42.2773 50.4277 42.2773C49.709 42.2773 49.1445 42.543 48.7344 43.0742C48.3281 43.6055 48.125 44.3613 48.125 45.3418V46.168C48.125 47.0938 48.3184 47.8301 48.7051 48.377C49.0918 48.9238 49.6328 49.1973 50.3281 49.1973C50.9531 49.1973 51.4316 49.0566 51.7637 48.7754C52.0996 48.4902 52.3223 47.9961 52.4316 47.293H53.5625ZM54.8984 51.6992L54.2832 51.2773C54.6504 50.7656 54.8418 50.2383 54.8574 49.6953V48.7168H55.918V49.5664C55.918 49.9609 55.8203 50.3555 55.625 50.75C55.4336 51.1445 55.1914 51.4609 54.8984 51.6992ZM65.6387 42.3945H61.5254V44.9492H63.6465C64.5371 44.9609 65.2324 45.1895 65.7324 45.6348C66.2324 46.0801 66.4824 46.6855 66.4824 47.4512C66.4824 48.2207 66.2305 48.834 65.7266 49.291C65.2227 49.748 64.5352 49.9844 63.6641 50H60.3945V41.4688H65.6387V42.3945ZM61.5254 45.875V49.0801H63.582C64.1406 49.0801 64.5742 48.9316 64.8828 48.6348C65.1953 48.3379 65.3516 47.9395 65.3516 47.4395C65.3516 46.959 65.2012 46.5801 64.9004 46.3027C64.6035 46.0254 64.1797 45.8828 63.6289 45.875H61.5254ZM71.9375 43.6602H73.0215V50H71.9375V45.377L69.0137 50H67.9297V43.6602H69.0137V48.2891L71.9375 43.6602ZM79.959 43.6602V50H78.8691V44.5566H76.7129L76.584 46.9297C76.5137 48.0195 76.3301 48.7988 76.0332 49.2676C75.7402 49.7363 75.2734 49.9805 74.6328 50H74.1992V49.0449L74.5098 49.0215C74.8613 48.9824 75.1133 48.7793 75.2656 48.4121C75.418 48.0449 75.5156 47.3652 75.5586 46.373L75.6758 43.6602H79.959ZM85.6133 50C85.5508 49.875 85.5 49.6523 85.4609 49.332C84.957 49.8555 84.3555 50.1172 83.6562 50.1172C83.0312 50.1172 82.5176 49.9414 82.1152 49.5898C81.7168 49.2344 81.5176 48.7852 81.5176 48.2422C81.5176 47.582 81.7676 47.0703 82.2676 46.707C82.7715 46.3398 83.4785 46.1562 84.3887 46.1562H85.4434V45.6582C85.4434 45.2793 85.3301 44.9785 85.1035 44.7559C84.877 44.5293 84.543 44.416 84.1016 44.416C83.7148 44.416 83.3906 44.5137 83.1289 44.709C82.8672 44.9043 82.7363 45.1406 82.7363 45.418H81.6465C81.6465 45.1016 81.7578 44.7969 81.9805 44.5039C82.207 44.207 82.5117 43.9727 82.8945 43.8008C83.2812 43.6289 83.7051 43.543 84.166 43.543C84.8965 43.543 85.4688 43.7266 85.8828 44.0938C86.2969 44.457 86.5117 44.959 86.5273 45.5996V48.5176C86.5273 49.0996 86.6016 49.5625 86.75 49.9062V50H85.6133ZM83.8145 49.1738C84.1543 49.1738 84.4766 49.0859 84.7812 48.9102C85.0859 48.7344 85.3066 48.5059 85.4434 48.2246V46.9238H84.5938C83.2656 46.9238 82.6016 47.3125 82.6016 48.0898C82.6016 48.4297 82.7148 48.6953 82.9414 48.8867C83.168 49.0781 83.459 49.1738 83.8145 49.1738ZM92.3281 43.6602H93.4121V50H92.3281V45.377L89.4043 50H88.3203V43.6602H89.4043V48.2891L92.3281 43.6602ZM92.6211 41.3516C92.6211 41.8242 92.459 42.2051 92.1348 42.4941C91.8145 42.7793 91.3926 42.9219 90.8691 42.9219C90.3457 42.9219 89.9219 42.7773 89.5977 42.4883C89.2734 42.1992 89.1113 41.8203 89.1113 41.3516H89.9961C89.9961 41.625 90.0703 41.8398 90.2188 41.9961C90.3672 42.1484 90.584 42.2246 90.8691 42.2246C91.1426 42.2246 91.3555 42.1484 91.5078 41.9961C91.6641 41.8438 91.7422 41.6289 91.7422 41.3516H92.6211ZM100.332 50H99.248V47.293H96.3359V50H95.2461V43.6602H96.3359V46.4082H99.248V43.6602H100.332V50ZM102.043 51.6992L101.428 51.2773C101.795 50.7656 101.986 50.2383 102.002 49.6953V48.7168H103.062V49.5664C103.062 49.9609 102.965 50.3555 102.77 50.75C102.578 51.1445 102.336 51.4609 102.043 51.6992ZM109.033 41.4688L111.822 48.4297L114.611 41.4688H116.07V50H114.945V46.6777L115.051 43.0918L112.25 50H111.389L108.594 43.1094L108.705 46.6777V50H107.58V41.4688H109.033ZM120.518 50.1172C119.658 50.1172 118.959 49.8359 118.42 49.2734C117.881 48.707 117.611 47.9512 117.611 47.0059V46.8066C117.611 46.1777 117.73 45.6172 117.969 45.125C118.211 44.6289 118.547 44.2422 118.977 43.9648C119.41 43.6836 119.879 43.543 120.383 43.543C121.207 43.543 121.848 43.8145 122.305 44.3574C122.762 44.9004 122.99 45.6777 122.99 46.6895V47.1406H118.695C118.711 47.7656 118.893 48.2715 119.24 48.6582C119.592 49.041 120.037 49.2324 120.576 49.2324C120.959 49.2324 121.283 49.1543 121.549 48.998C121.814 48.8418 122.047 48.6348 122.246 48.377L122.908 48.8926C122.377 49.709 121.58 50.1172 120.518 50.1172ZM120.383 44.4336C119.945 44.4336 119.578 44.5938 119.281 44.9141C118.984 45.2305 118.801 45.6758 118.73 46.25H121.906V46.168C121.875 45.6172 121.727 45.1914 121.461 44.8906C121.195 44.5859 120.836 44.4336 120.383 44.4336ZM128.346 44.5566H125.422V50H124.332V43.6602H128.346V44.5566ZM133.203 50C133.141 49.875 133.09 49.6523 133.051 49.332C132.547 49.8555 131.945 50.1172 131.246 50.1172C130.621 50.1172 130.107 49.9414 129.705 49.5898C129.307 49.2344 129.107 48.7852 129.107 48.2422C129.107 47.582 129.357 47.0703 129.857 46.707C130.361 46.3398 131.068 46.1562 131.979 46.1562H133.033V45.6582C133.033 45.2793 132.92 44.9785 132.693 44.7559C132.467 44.5293 132.133 44.416 131.691 44.416C131.305 44.416 130.98 44.5137 130.719 44.709C130.457 44.9043 130.326 45.1406 130.326 45.418H129.236C129.236 45.1016 129.348 44.7969 129.57 44.5039C129.797 44.207 130.102 43.9727 130.484 43.8008C130.871 43.6289 131.295 43.543 131.756 43.543C132.486 43.543 133.059 43.7266 133.473 44.0938C133.887 44.457 134.102 44.959 134.117 45.5996V48.5176C134.117 49.0996 134.191 49.5625 134.34 49.9062V50H133.203ZM131.404 49.1738C131.744 49.1738 132.066 49.0859 132.371 48.9102C132.676 48.7344 132.896 48.5059 133.033 48.2246V46.9238H132.184C130.855 46.9238 130.191 47.3125 130.191 48.0898C130.191 48.4297 130.305 48.6953 130.531 48.8867C130.758 49.0781 131.049 49.1738 131.404 49.1738ZM135.582 46.9473C135.582 45.8887 135.787 45.0566 136.197 44.4512C136.607 43.8457 137.17 43.543 137.885 43.543C138.217 43.543 138.508 43.5996 138.758 43.7129V41H139.842V43.748C140.115 43.6113 140.436 43.543 140.803 43.543C141.521 43.543 142.086 43.8457 142.496 44.4512C142.906 45.0566 143.111 45.9297 143.111 47.0703C143.111 48.0039 142.906 48.7461 142.496 49.2969C142.09 49.8477 141.529 50.123 140.814 50.123C140.436 50.123 140.111 50.0605 139.842 49.9355V52.4375H138.758V49.9531C138.5 50.0664 138.205 50.123 137.873 50.123C137.162 50.123 136.602 49.8477 136.191 49.2969C135.785 48.7461 135.582 47.9922 135.582 47.0352V46.9473ZM142.027 46.9473C142.027 46.1504 141.891 45.5332 141.617 45.0957C141.344 44.6543 140.967 44.4336 140.486 44.4336C140.24 44.4336 140.025 44.4727 139.842 44.5508V49.1387C140.018 49.2051 140.236 49.2383 140.498 49.2383C140.982 49.2383 141.357 49.0508 141.623 48.6758C141.893 48.3008 142.027 47.7246 142.027 46.9473ZM136.666 47.0703C136.666 47.7812 136.793 48.3203 137.047 48.6875C137.301 49.0547 137.666 49.2383 138.143 49.2383C138.369 49.2383 138.574 49.2031 138.758 49.1328V44.5332C138.594 44.4668 138.393 44.4336 138.154 44.4336C137.678 44.4336 137.311 44.6465 137.053 45.0723C136.795 45.498 136.666 46.1641 136.666 47.0703ZM144.236 46.7715C144.236 46.1504 144.357 45.5918 144.6 45.0957C144.846 44.5996 145.186 44.2168 145.619 43.9473C146.057 43.6777 146.555 43.543 147.113 43.543C147.977 43.543 148.674 43.8418 149.205 44.4395C149.74 45.0371 150.008 45.832 150.008 46.8242V46.9004C150.008 47.5176 149.889 48.0723 149.65 48.5645C149.416 49.0527 149.078 49.4336 148.637 49.707C148.199 49.9805 147.695 50.1172 147.125 50.1172C146.266 50.1172 145.568 49.8184 145.033 49.2207C144.502 48.623 144.236 47.832 144.236 46.8477V46.7715ZM145.326 46.9004C145.326 47.6035 145.488 48.168 145.812 48.5938C146.141 49.0195 146.578 49.2324 147.125 49.2324C147.676 49.2324 148.113 49.0176 148.438 48.5879C148.762 48.1543 148.924 47.5488 148.924 46.7715C148.924 46.0762 148.758 45.5137 148.426 45.084C148.098 44.6504 147.66 44.4336 147.113 44.4336C146.578 44.4336 146.146 44.6465 145.818 45.0723C145.49 45.498 145.326 46.1074 145.326 46.9004ZM156.547 50H155.463V47.293H152.551V50H151.461V43.6602H152.551V46.4082H155.463V43.6602H156.547V50ZM158.258 51.6992L157.643 51.2773C158.01 50.7656 158.201 50.2383 158.217 49.6953V48.7168H159.277V49.5664C159.277 49.9609 159.18 50.3555 158.984 50.75C158.793 51.1445 158.551 51.4609 158.258 51.6992ZM169.455 42.3945H166.713V50H165.594V42.3945H162.857V41.4688H169.455V42.3945ZM172.596 50.1172C171.736 50.1172 171.037 49.8359 170.498 49.2734C169.959 48.707 169.689 47.9512 169.689 47.0059V46.8066C169.689 46.1777 169.809 45.6172 170.047 45.125C170.289 44.6289 170.625 44.2422 171.055 43.9648C171.488 43.6836 171.957 43.543 172.461 43.543C173.285 43.543 173.926 43.8145 174.383 44.3574C174.84 44.9004 175.068 45.6777 175.068 46.6895V47.1406H170.773C170.789 47.7656 170.971 48.2715 171.318 48.6582C171.67 49.041 172.115 49.2324 172.654 49.2324C173.037 49.2324 173.361 49.1543 173.627 48.998C173.893 48.8418 174.125 48.6348 174.324 48.377L174.986 48.8926C174.455 49.709 173.658 50.1172 172.596 50.1172ZM172.461 44.4336C172.023 44.4336 171.656 44.5938 171.359 44.9141C171.062 45.2305 170.879 45.6758 170.809 46.25H173.984V46.168C173.953 45.6172 173.805 45.1914 173.539 44.8906C173.273 44.5859 172.914 44.4336 172.461 44.4336ZM181.525 43.6602V50H180.436V44.5566H178.279L178.15 46.9297C178.08 48.0195 177.896 48.7988 177.6 49.2676C177.307 49.7363 176.84 49.9805 176.199 50H175.766V49.0449L176.076 49.0215C176.428 48.9824 176.68 48.7793 176.832 48.4121C176.984 48.0449 177.082 47.3652 177.125 46.373L177.242 43.6602H181.525ZM185.896 50.1172C185.037 50.1172 184.338 49.8359 183.799 49.2734C183.26 48.707 182.99 47.9512 182.99 47.0059V46.8066C182.99 46.1777 183.109 45.6172 183.348 45.125C183.59 44.6289 183.926 44.2422 184.355 43.9648C184.789 43.6836 185.258 43.543 185.762 43.543C186.586 43.543 187.227 43.8145 187.684 44.3574C188.141 44.9004 188.369 45.6777 188.369 46.6895V47.1406H184.074C184.09 47.7656 184.271 48.2715 184.619 48.6582C184.971 49.041 185.416 49.2324 185.955 49.2324C186.338 49.2324 186.662 49.1543 186.928 48.998C187.193 48.8418 187.426 48.6348 187.625 48.377L188.287 48.8926C187.756 49.709 186.959 50.1172 185.896 50.1172ZM185.762 44.4336C185.324 44.4336 184.957 44.5938 184.66 44.9141C184.363 45.2305 184.18 45.6758 184.109 46.25H187.285V46.168C187.254 45.6172 187.105 45.1914 186.84 44.8906C186.574 44.5859 186.215 44.4336 185.762 44.4336ZM195.107 50H189.518V49.2207L192.471 45.9395C192.908 45.4434 193.209 45.041 193.373 44.7324C193.541 44.4199 193.625 44.0977 193.625 43.7656C193.625 43.3203 193.49 42.9551 193.221 42.6699C192.951 42.3848 192.592 42.2422 192.143 42.2422C191.604 42.2422 191.184 42.3965 190.883 42.7051C190.586 43.0098 190.438 43.4355 190.438 43.9824H189.354C189.354 43.1973 189.605 42.5625 190.109 42.0781C190.617 41.5938 191.295 41.3516 192.143 41.3516C192.936 41.3516 193.562 41.5605 194.023 41.9785C194.484 42.3926 194.715 42.9453 194.715 43.6367C194.715 44.4766 194.18 45.4766 193.109 46.6367L190.824 49.1152H195.107V50Z" fill="#707C87"/>
<path d="M8.8373 0H1.1627C0.523313 0 0 0.485943 0 1.08069V14.9189C0 15.5136 0.523313 16 1.1627 16H8.8373C9.47669 16 10 15.5145 10 14.9193V1.08069C10 0.485943 9.47669 0 8.8373 0ZM3.77238 0.778971H6.22762C6.30533 0.778971 6.36829 0.837486 6.36829 0.910171C6.36829 0.9824 6.30533 1.04091 6.22762 1.04091H3.77238C3.69467 1.04091 3.63171 0.9824 3.63171 0.910171C3.63171 0.837486 3.69467 0.778971 3.77238 0.778971ZM5 15.4597C4.67883 15.4597 4.41865 15.2178 4.41865 14.9189C4.41865 14.6199 4.67883 14.3785 5 14.3785C5.32117 14.3785 5.58135 14.6199 5.58135 14.9189C5.58135 15.2178 5.32117 15.4597 5 15.4597ZM9.19093 14H0.809069V1.71383H9.19093V14Z" fill="#1F1E25"/>
</svg>
