<svg width="148" height="34" viewBox="0 0 148 34" fill="none" xmlns="http://www.w3.org/2000/svg">
<path d="M49.0654 19.834C48.9365 21.1992 48.4326 22.2656 47.5537 23.0332C46.6748 23.7949 45.5059 24.1758 44.0469 24.1758C43.0273 24.1758 42.1279 23.9355 41.3486 23.4551C40.5752 22.9688 39.9775 22.2803 39.5557 21.3896C39.1338 20.499 38.9141 19.4648 38.8965 18.2871V17.0918C38.8965 15.8848 39.1104 14.8213 39.5381 13.9014C39.9658 12.9814 40.5781 12.2725 41.375 11.7744C42.1777 11.2764 43.1035 11.0273 44.1523 11.0273C45.5645 11.0273 46.7012 11.4111 47.5625 12.1787C48.4238 12.9463 48.9248 14.0303 49.0654 15.4307H46.8506C46.7451 14.5107 46.4756 13.8486 46.042 13.4443C45.6143 13.0342 44.9844 12.8291 44.1523 12.8291C43.1855 12.8291 42.4414 13.1836 41.9199 13.8926C41.4043 14.5957 41.1406 15.6299 41.1289 16.9951V18.1289C41.1289 19.5117 41.375 20.5664 41.8672 21.293C42.3652 22.0195 43.0918 22.3828 44.0469 22.3828C44.9199 22.3828 45.5762 22.1865 46.0156 21.7939C46.4551 21.4014 46.7334 20.748 46.8506 19.834H49.0654ZM58.3379 16.1865H55.2529V24H53.1172V16.1865H50.0674V14.4902H58.3379V16.1865ZM68.0938 19.3418C68.0938 20.8125 67.7598 21.9873 67.0918 22.8662C66.4238 23.7393 65.5273 24.1758 64.4023 24.1758C63.3594 24.1758 62.5244 23.833 61.8975 23.1475V27.6562H59.7617V14.4902H61.7305L61.8184 15.457C62.4453 14.6953 63.2979 14.3145 64.376 14.3145C65.5361 14.3145 66.4443 14.748 67.1006 15.6152C67.7627 16.4766 68.0938 17.6748 68.0938 19.21V19.3418ZM65.9668 19.1572C65.9668 18.208 65.7764 17.4551 65.3955 16.8984C65.0205 16.3418 64.4814 16.0635 63.7783 16.0635C62.9053 16.0635 62.2783 16.4238 61.8975 17.1445V21.3633C62.2842 22.1016 62.917 22.4707 63.7959 22.4707C64.4756 22.4707 65.0059 22.1982 65.3867 21.6533C65.7734 21.1025 65.9668 20.2705 65.9668 19.1572ZM75.5908 24C75.4971 23.8184 75.415 23.5225 75.3447 23.1123C74.665 23.8213 73.833 24.1758 72.8486 24.1758C71.8936 24.1758 71.1143 23.9033 70.5107 23.3584C69.9072 22.8135 69.6055 22.1396 69.6055 21.3369C69.6055 20.3232 69.9805 19.5469 70.7305 19.0078C71.4863 18.4629 72.5645 18.1904 73.9648 18.1904H75.2744V17.5664C75.2744 17.0742 75.1367 16.6816 74.8613 16.3887C74.5859 16.0898 74.167 15.9404 73.6045 15.9404C73.1182 15.9404 72.7197 16.0635 72.4092 16.3096C72.0986 16.5498 71.9434 16.8574 71.9434 17.2324H69.8076C69.8076 16.7109 69.9805 16.2246 70.3262 15.7734C70.6719 15.3164 71.1406 14.959 71.7324 14.7012C72.3301 14.4434 72.9951 14.3145 73.7275 14.3145C74.8408 14.3145 75.7285 14.5957 76.3906 15.1582C77.0527 15.7148 77.3926 16.5 77.4102 17.5137V21.8027C77.4102 22.6582 77.5303 23.3408 77.7705 23.8506V24H75.5908ZM73.2441 22.4619C73.666 22.4619 74.0615 22.3594 74.4307 22.1543C74.8057 21.9492 75.0869 21.6738 75.2744 21.3281V19.5352H74.123C73.332 19.5352 72.7373 19.6729 72.3389 19.9482C71.9404 20.2236 71.7412 20.6133 71.7412 21.1172C71.7412 21.5273 71.876 21.8555 72.1455 22.1016C72.4209 22.3418 72.7871 22.4619 73.2441 22.4619ZM83.0615 17.6191L84.8721 14.4902H87.2451L84.3359 19.1748L87.3418 24H84.9863L83.0879 20.748L81.1982 24H78.8252L81.8311 19.1748L78.9307 14.4902H81.2861L83.0615 17.6191ZM87.9482 19.1572C87.9482 18.2256 88.1328 17.3877 88.502 16.6436C88.8711 15.8936 89.3896 15.3193 90.0576 14.9209C90.7256 14.5166 91.4932 14.3145 92.3604 14.3145C93.6436 14.3145 94.6836 14.7275 95.4805 15.5537C96.2832 16.3799 96.7168 17.4756 96.7812 18.8408L96.79 19.3418C96.79 20.2793 96.6084 21.1172 96.2451 21.8555C95.8877 22.5938 95.3721 23.165 94.6982 23.5693C94.0303 23.9736 93.2568 24.1758 92.3779 24.1758C91.0361 24.1758 89.9609 23.7305 89.1523 22.8398C88.3496 21.9434 87.9482 20.751 87.9482 19.2627V19.1572ZM90.084 19.3418C90.084 20.3203 90.2861 21.0879 90.6904 21.6445C91.0947 22.1953 91.6572 22.4707 92.3779 22.4707C93.0986 22.4707 93.6582 22.1895 94.0566 21.627C94.4609 21.0645 94.6631 20.2412 94.6631 19.1572C94.6631 18.1963 94.4551 17.4346 94.0391 16.8721C93.6289 16.3096 93.0693 16.0283 92.3604 16.0283C91.6631 16.0283 91.1094 16.3066 90.6992 16.8633C90.2891 17.4141 90.084 18.2402 90.084 19.3418ZM98.7588 24V14.4902H102.617C103.918 14.4902 104.908 14.7188 105.588 15.1758C106.268 15.627 106.607 16.2773 106.607 17.127C106.607 17.5664 106.47 17.9619 106.194 18.3135C105.925 18.6592 105.523 18.9258 104.99 19.1133C105.611 19.2422 106.104 19.5029 106.467 19.8955C106.83 20.2881 107.012 20.751 107.012 21.2842C107.012 22.1689 106.684 22.8428 106.027 23.3057C105.377 23.7686 104.439 24 103.215 24H98.7588ZM100.895 19.9482V22.3125H103.232C104.328 22.3125 104.876 21.9199 104.876 21.1348C104.876 20.3438 104.319 19.9482 103.206 19.9482H100.895ZM100.895 18.4189H102.652C103.865 18.4189 104.472 18.0615 104.472 17.3467C104.472 16.5967 103.897 16.21 102.749 16.1865H100.895V18.4189ZM114.544 24C114.45 23.8184 114.368 23.5225 114.298 23.1123C113.618 23.8213 112.786 24.1758 111.802 24.1758C110.847 24.1758 110.067 23.9033 109.464 23.3584C108.86 22.8135 108.559 22.1396 108.559 21.3369C108.559 20.3232 108.934 19.5469 109.684 19.0078C110.439 18.4629 111.518 18.1904 112.918 18.1904H114.228V17.5664C114.228 17.0742 114.09 16.6816 113.814 16.3887C113.539 16.0898 113.12 15.9404 112.558 15.9404C112.071 15.9404 111.673 16.0635 111.362 16.3096C111.052 16.5498 110.896 16.8574 110.896 17.2324H108.761C108.761 16.7109 108.934 16.2246 109.279 15.7734C109.625 15.3164 110.094 14.959 110.686 14.7012C111.283 14.4434 111.948 14.3145 112.681 14.3145C113.794 14.3145 114.682 14.5957 115.344 15.1582C116.006 15.7148 116.346 16.5 116.363 17.5137V21.8027C116.363 22.6582 116.483 23.3408 116.724 23.8506V24H114.544ZM112.197 22.4619C112.619 22.4619 113.015 22.3594 113.384 22.1543C113.759 21.9492 114.04 21.6738 114.228 21.3281V19.5352H113.076C112.285 19.5352 111.69 19.6729 111.292 19.9482C110.894 20.2236 110.694 20.6133 110.694 21.1172C110.694 21.5273 110.829 21.8555 111.099 22.1016C111.374 22.3418 111.74 22.4619 112.197 22.4619ZM126.655 24H124.52V20.1592H120.819V24H118.684V14.4902H120.819V18.4541H124.52V14.4902H126.655V24ZM134.873 14.4902H137V24H134.873V17.6543L131.146 24H129.02V14.4902H131.146V20.8359L134.873 14.4902ZM143.46 24.1758C142.106 24.1758 141.008 23.751 140.164 22.9014C139.326 22.0459 138.907 20.9092 138.907 19.4912V19.2275C138.907 18.2783 139.089 17.4316 139.452 16.6875C139.821 15.9375 140.337 15.3545 140.999 14.9385C141.661 14.5225 142.399 14.3145 143.214 14.3145C144.509 14.3145 145.508 14.7275 146.211 15.5537C146.92 16.3799 147.274 17.5488 147.274 19.0605V19.9219H141.061C141.125 20.707 141.386 21.3281 141.843 21.7852C142.306 22.2422 142.886 22.4707 143.583 22.4707C144.562 22.4707 145.358 22.0752 145.974 21.2842L147.125 22.3828C146.744 22.9512 146.234 23.3936 145.596 23.71C144.963 24.0205 144.251 24.1758 143.46 24.1758ZM143.205 16.0283C142.619 16.0283 142.145 16.2334 141.781 16.6436C141.424 17.0537 141.195 17.625 141.096 18.3574H145.165V18.1992C145.118 17.4844 144.928 16.9453 144.594 16.582C144.26 16.2129 143.797 16.0283 143.205 16.0283Z" fill="#4C4B51"/>
<path d="M27.9234 5.31216C22.1552 5.31216 17.7362 3.65462 13.9995 0C10.2631 3.65462 5.84431 5.31216 0.0766133 5.31216C0.0766133 14.8295 -1.88138 28.4631 13.9994 34C29.8813 28.4632 27.9234 14.8296 27.9234 5.31216ZM12.8461 22.0601L8.2074 17.3939L10.2843 15.3051L12.8461 17.8823L17.7151 12.9849L19.7919 15.0737L12.8461 22.0601Z" fill="#565EF5"/>
</svg>
