<svg width="203" height="22" viewBox="0 0 203 22" fill="none" xmlns="http://www.w3.org/2000/svg">
<path d="M31.3203 17V5.625H35.0391C36.2734 5.625 37.2005 5.88021 37.8203 6.39062C38.4453 6.90104 38.7578 7.65625 38.7578 8.65625C38.7578 9.1875 38.6068 9.65885 38.3047 10.0703C38.0026 10.4766 37.5911 10.7917 37.0703 11.0156C37.6849 11.1875 38.1693 11.5156 38.5234 12C38.8828 12.4792 39.0625 13.0521 39.0625 13.7188C39.0625 14.7396 38.7318 15.5417 38.0703 16.125C37.4089 16.7083 36.474 17 35.2656 17H31.3203ZM32.8203 11.6797V15.7734H35.2969C35.9948 15.7734 36.5443 15.5938 36.9453 15.2344C37.3516 14.8698 37.5547 14.3698 37.5547 13.7344C37.5547 12.3646 36.8099 11.6797 35.3203 11.6797H32.8203ZM32.8203 10.4766H35.0859C35.7422 10.4766 36.2656 10.3125 36.6562 9.98438C37.0521 9.65625 37.25 9.21094 37.25 8.64844C37.25 8.02344 37.0677 7.57031 36.7031 7.28906C36.3385 7.0026 35.7839 6.85938 35.0391 6.85938H32.8203V10.4766ZM40.6797 12.6953C40.6797 11.8672 40.8411 11.1224 41.1641 10.4609C41.4922 9.79948 41.9453 9.28906 42.5234 8.92969C43.1068 8.57031 43.7708 8.39062 44.5156 8.39062C45.6667 8.39062 46.5964 8.78906 47.3047 9.58594C48.0182 10.3828 48.375 11.4427 48.375 12.7656V12.8672C48.375 13.6901 48.2161 14.4297 47.8984 15.0859C47.5859 15.737 47.1354 16.2448 46.5469 16.6094C45.9635 16.974 45.2917 17.1562 44.5312 17.1562C43.3854 17.1562 42.4557 16.7578 41.7422 15.9609C41.0339 15.1641 40.6797 14.1094 40.6797 12.7969V12.6953ZM42.1328 12.8672C42.1328 13.8047 42.349 14.5573 42.7812 15.125C43.2188 15.6927 43.8021 15.9766 44.5312 15.9766C45.2656 15.9766 45.849 15.6901 46.2812 15.1172C46.7135 14.5391 46.9297 13.7318 46.9297 12.6953C46.9297 11.7682 46.7083 11.0182 46.2656 10.4453C45.8281 9.86719 45.2448 9.57812 44.5156 9.57812C43.8021 9.57812 43.2266 9.86198 42.7891 10.4297C42.3516 10.9974 42.1328 11.8099 42.1328 12.8672ZM55.6562 8.54688H57.1016V17H55.6562V10.8359L51.7578 17H50.3125V8.54688H51.7578V14.7188L55.6562 8.54688ZM56.0469 5.46875C56.0469 6.09896 55.8307 6.60677 55.3984 6.99219C54.9714 7.3724 54.4089 7.5625 53.7109 7.5625C53.013 7.5625 52.4479 7.36979 52.0156 6.98438C51.5833 6.59896 51.3672 6.09375 51.3672 5.46875H52.5469C52.5469 5.83333 52.6458 6.11979 52.8438 6.32812C53.0417 6.53125 53.3307 6.63281 53.7109 6.63281C54.0755 6.63281 54.3594 6.53125 54.5625 6.32812C54.7708 6.125 54.875 5.83854 54.875 5.46875H56.0469ZM65.7031 9.71875H62.8672V17H61.4219V9.71875H58.6406V8.54688H65.7031V9.71875ZM72.5781 8.54688H74.0234V17H72.5781V10.8359L68.6797 17H67.2344V8.54688H68.6797V14.7188L72.5781 8.54688ZM80.4453 17V8.54688H83.7422C84.8672 8.54688 85.7292 8.74479 86.3281 9.14062C86.9323 9.53125 87.2344 10.1068 87.2344 10.8672C87.2344 11.2578 87.1172 11.612 86.8828 11.9297C86.6484 12.2422 86.3021 12.4818 85.8438 12.6484C86.3542 12.7682 86.763 13.0026 87.0703 13.3516C87.3828 13.7005 87.5391 14.1172 87.5391 14.6016C87.5391 15.3776 87.2526 15.9714 86.6797 16.3828C86.112 16.7943 85.3073 17 84.2656 17H80.4453ZM81.8906 13.2891V15.8359H84.2812C84.8854 15.8359 85.3359 15.724 85.6328 15.5C85.9349 15.276 86.0859 14.9609 86.0859 14.5547C86.0859 13.7109 85.4661 13.2891 84.2266 13.2891H81.8906ZM81.8906 12.1328H83.7578C85.112 12.1328 85.7891 11.737 85.7891 10.9453C85.7891 10.1536 85.1484 9.74479 83.8672 9.71875H81.8906V12.1328ZM100.82 5.625H102.32V17H100.82V8.23438L95.2188 17H93.7109V5.625H95.2188V14.3906L100.82 5.625ZM111.734 17H110.289V13.3906H106.406V17H104.953V8.54688H106.406V12.2109H110.289V8.54688H111.734V17ZM120.344 9.71875H117.508V17H116.062V9.71875H113.281V8.54688H120.344V9.71875ZM124.633 17.1562C123.487 17.1562 122.555 16.7812 121.836 16.0312C121.117 15.276 120.758 14.2682 120.758 13.0078V12.7422C120.758 11.9036 120.917 11.1562 121.234 10.5C121.557 9.83854 122.005 9.32292 122.578 8.95312C123.156 8.57812 123.781 8.39062 124.453 8.39062C125.552 8.39062 126.406 8.7526 127.016 9.47656C127.625 10.2005 127.93 11.237 127.93 12.5859V13.1875H122.203C122.224 14.0208 122.466 14.6953 122.93 15.2109C123.398 15.7214 123.992 15.9766 124.711 15.9766C125.221 15.9766 125.654 15.8724 126.008 15.6641C126.362 15.4557 126.672 15.1797 126.938 14.8359L127.82 15.5234C127.112 16.612 126.049 17.1562 124.633 17.1562ZM124.453 9.57812C123.87 9.57812 123.38 9.79167 122.984 10.2188C122.589 10.6406 122.344 11.2344 122.25 12H126.484V11.8906C126.443 11.1562 126.245 10.5885 125.891 10.1875C125.536 9.78125 125.057 9.57812 124.453 9.57812ZM136.75 12.8672C136.75 14.1536 136.456 15.1901 135.867 15.9766C135.279 16.763 134.482 17.1562 133.477 17.1562C132.451 17.1562 131.643 16.8307 131.055 16.1797V20.25H129.609V8.54688H130.93L131 9.48438C131.589 8.75521 132.406 8.39062 133.453 8.39062C134.469 8.39062 135.271 8.77344 135.859 9.53906C136.453 10.3047 136.75 11.3698 136.75 12.7344V12.8672ZM135.305 12.7031C135.305 11.75 135.102 10.9974 134.695 10.4453C134.289 9.89323 133.732 9.61719 133.023 9.61719C132.148 9.61719 131.492 10.0052 131.055 10.7812V14.8203C131.487 15.5911 132.148 15.9766 133.039 15.9766C133.732 15.9766 134.281 15.7031 134.688 15.1562C135.099 14.6042 135.305 13.7865 135.305 12.7031ZM145.5 17H144.055V13.3906H140.172V17H138.719V8.54688H140.172V12.2109H144.055V8.54688H145.5V17ZM151.336 17.1562C150.19 17.1562 149.258 16.7812 148.539 16.0312C147.82 15.276 147.461 14.2682 147.461 13.0078V12.7422C147.461 11.9036 147.62 11.1562 147.938 10.5C148.26 9.83854 148.708 9.32292 149.281 8.95312C149.859 8.57812 150.484 8.39062 151.156 8.39062C152.255 8.39062 153.109 8.7526 153.719 9.47656C154.328 10.2005 154.633 11.237 154.633 12.5859V13.1875H148.906C148.927 14.0208 149.169 14.6953 149.633 15.2109C150.102 15.7214 150.695 15.9766 151.414 15.9766C151.924 15.9766 152.357 15.8724 152.711 15.6641C153.065 15.4557 153.375 15.1797 153.641 14.8359L154.523 15.5234C153.815 16.612 152.753 17.1562 151.336 17.1562ZM151.156 9.57812C150.573 9.57812 150.083 9.79167 149.688 10.2188C149.292 10.6406 149.047 11.2344 148.953 12H153.188V11.8906C153.146 11.1562 152.948 10.5885 152.594 10.1875C152.24 9.78125 151.76 9.57812 151.156 9.57812ZM162.5 9.71875H159.664V17H158.219V9.71875H155.438V8.54688H162.5V9.71875ZM166.914 12.7578H163.102V11.5781H166.914V12.7578ZM172.039 9.03125C173.102 9.03125 173.951 9.38802 174.586 10.1016C175.227 10.8099 175.547 11.7448 175.547 12.9062V13.0391C175.547 13.8359 175.393 14.5495 175.086 15.1797C174.779 15.8047 174.336 16.2917 173.758 16.6406C173.185 16.9844 172.523 17.1562 171.773 17.1562C170.638 17.1562 169.724 16.7786 169.031 16.0234C168.339 15.263 167.992 14.2448 167.992 12.9688V12.2656C167.992 10.4896 168.32 9.07812 168.977 8.03125C169.638 6.98438 170.612 6.34635 171.898 6.11719C172.628 5.98698 173.12 5.82812 173.375 5.64062C173.63 5.45312 173.758 5.19531 173.758 4.86719H174.945C174.945 5.51823 174.797 6.02604 174.5 6.39062C174.208 6.75521 173.74 7.01302 173.094 7.16406L172.016 7.40625C171.156 7.60938 170.51 7.95312 170.078 8.4375C169.651 8.91667 169.372 9.55729 169.242 10.3594C170.008 9.47396 170.94 9.03125 172.039 9.03125ZM171.758 10.2188C171.049 10.2188 170.487 10.4583 170.07 10.9375C169.654 11.4115 169.445 12.0703 169.445 12.9141V13.0391C169.445 13.9453 169.654 14.6641 170.07 15.1953C170.492 15.7214 171.06 15.9844 171.773 15.9844C172.492 15.9844 173.06 15.7188 173.477 15.1875C173.893 14.6562 174.102 13.8802 174.102 12.8594C174.102 12.0625 173.891 11.4245 173.469 10.9453C173.052 10.4609 172.482 10.2188 171.758 10.2188ZM182.391 17C182.307 16.8333 182.24 16.5365 182.188 16.1094C181.516 16.8073 180.714 17.1562 179.781 17.1562C178.948 17.1562 178.263 16.9219 177.727 16.4531C177.195 15.9792 176.93 15.3802 176.93 14.6562C176.93 13.776 177.263 13.0938 177.93 12.6094C178.602 12.1198 179.544 11.875 180.758 11.875H182.164V11.2109C182.164 10.7057 182.013 10.3047 181.711 10.0078C181.409 9.70573 180.964 9.55469 180.375 9.55469C179.859 9.55469 179.427 9.6849 179.078 9.94531C178.729 10.2057 178.555 10.5208 178.555 10.8906H177.102C177.102 10.4688 177.25 10.0625 177.547 9.67188C177.849 9.27604 178.255 8.96354 178.766 8.73438C179.281 8.50521 179.846 8.39062 180.461 8.39062C181.435 8.39062 182.198 8.63542 182.75 9.125C183.302 9.60938 183.589 10.2786 183.609 11.1328V15.0234C183.609 15.7995 183.708 16.4167 183.906 16.875V17H182.391ZM179.992 15.8984C180.445 15.8984 180.875 15.7812 181.281 15.5469C181.688 15.3125 181.982 15.0078 182.164 14.6328V12.8984H181.031C179.26 12.8984 178.375 13.4167 178.375 14.4531C178.375 14.9062 178.526 15.2604 178.828 15.5156C179.13 15.7708 179.518 15.8984 179.992 15.8984ZM192.781 17H191.336V13.3906H187.453V17H186V8.54688H187.453V12.2109H191.336V8.54688H192.781V17ZM197.742 13.3984H196.688V17H195.234V8.54688H196.688V12.125H197.633L200.477 8.54688H202.227L198.883 12.6094L202.508 17H200.672L197.742 13.3984Z" fill="#1F1E25"/>
<path d="M2.22222 14.3H4.44444V19.8H17.7778V2.2H4.44444V7.7H2.22222V1.1C2.22222 0.808262 2.33929 0.528472 2.54766 0.322183C2.75603 0.115892 3.03865 0 3.33333 0H18.8889C19.1836 0 19.4662 0.115892 19.6746 0.322183C19.8829 0.528472 20 0.808262 20 1.1V20.9C20 21.1917 19.8829 21.4715 19.6746 21.6778C19.4662 21.8841 19.1836 22 18.8889 22H3.33333C3.03865 22 2.75603 21.8841 2.54766 21.6778C2.33929 21.4715 2.22222 21.1917 2.22222 20.9V14.3ZM8.88889 9.9V6.6L14.4444 11L8.88889 15.4V12.1H0V9.9H8.88889Z" fill="#1F1E25"/>
</svg>
