<svg width="253" height="91" viewBox="0 0 253 91" fill="none" xmlns="http://www.w3.org/2000/svg">
<path d="M51.1 26H48.08V14.24H44.58C44.5 14.8533 44.4133 15.52 44.32 16.24C44.24 16.96 44.1467 17.6933 44.04 18.44C43.9467 19.1733 43.8467 19.8733 43.74 20.54C43.6333 21.1933 43.5267 21.7733 43.42 22.28C43.2467 23.1067 43.0133 23.8133 42.72 24.4C42.44 24.9867 42.0467 25.4333 41.54 25.74C41.0467 26.0467 40.4 26.2 39.6 26.2C39.08 26.2 38.6 26.1267 38.16 25.98V23.5C38.3333 23.5533 38.5 23.6 38.66 23.64C38.8333 23.68 39.02 23.7 39.22 23.7C39.6067 23.7 39.9 23.5 40.1 23.1C40.3133 22.6867 40.5267 21.92 40.74 20.8C40.82 20.3733 40.9333 19.7067 41.08 18.8C41.2267 17.8933 41.3867 16.8333 41.56 15.62C41.7467 14.3933 41.92 13.0933 42.08 11.72H51.1V26ZM54.7023 11.72H57.4223V18.62C57.4223 18.9533 57.4157 19.3267 57.4023 19.74C57.389 20.1533 57.3757 20.56 57.3623 20.96C57.349 21.3467 57.3357 21.6867 57.3223 21.98C57.309 22.26 57.2957 22.4533 57.2823 22.56H57.3423L63.9423 11.72H67.5623V26H64.8623V19.14C64.8623 18.78 64.869 18.3867 64.8823 17.96C64.8957 17.52 64.909 17.1 64.9223 16.7C64.949 16.3 64.969 15.9533 64.9823 15.66C65.009 15.3533 65.029 15.1533 65.0423 15.06H64.9623L58.3423 26H54.7023V11.72ZM80.1872 11.72V14.22H74.1872V26H71.1672V11.72H80.1872ZM89.7119 26L88.6719 22.6H83.4719L82.4319 26H79.1719L84.2119 11.66H87.9119L92.9719 26H89.7119ZM87.9519 20.06L86.9119 16.74C86.8452 16.5133 86.7585 16.2267 86.6519 15.88C86.5452 15.5333 86.4385 15.18 86.3319 14.82C86.2252 14.46 86.1385 14.1467 86.0719 13.88C86.0052 14.1467 85.9119 14.48 85.7919 14.88C85.6852 15.2667 85.5785 15.64 85.4719 16C85.3785 16.3467 85.3052 16.5933 85.2519 16.74L84.2319 20.06H87.9519ZM100.503 26V11.72H109.523V14.22H103.523V17.2H104.723C106.07 17.2 107.17 17.3867 108.023 17.76C108.89 18.1333 109.53 18.6467 109.943 19.3C110.356 19.9533 110.563 20.7 110.563 21.54C110.563 22.9533 110.09 24.0533 109.143 24.84C108.21 25.6133 106.716 26 104.663 26H100.503ZM103.523 23.52H104.543C105.463 23.52 106.183 23.3733 106.703 23.08C107.236 22.7867 107.503 22.2733 107.503 21.54C107.503 20.78 107.216 20.28 106.643 20.04C106.07 19.8 105.29 19.68 104.303 19.68H103.523V23.52ZM117.497 14.86C118.964 14.86 120.084 15.18 120.857 15.82C121.644 16.4467 122.037 17.4133 122.037 18.72V26H119.957L119.377 24.52H119.297C118.83 25.1067 118.337 25.5333 117.817 25.8C117.297 26.0667 116.584 26.2 115.677 26.2C114.704 26.2 113.897 25.92 113.257 25.36C112.617 24.7867 112.297 23.9133 112.297 22.74C112.297 21.58 112.704 20.7267 113.517 20.18C114.33 19.62 115.55 19.3133 117.177 19.26L119.077 19.2V18.72C119.077 18.1467 118.924 17.7267 118.617 17.46C118.324 17.1933 117.91 17.06 117.377 17.06C116.844 17.06 116.324 17.14 115.817 17.3C115.31 17.4467 114.804 17.6333 114.297 17.86L113.317 15.84C113.904 15.5333 114.55 15.2933 115.257 15.12C115.977 14.9467 116.724 14.86 117.497 14.86ZM119.077 20.94L117.917 20.98C116.957 21.0067 116.29 21.18 115.917 21.5C115.544 21.82 115.357 22.24 115.357 22.76C115.357 23.2133 115.49 23.54 115.757 23.74C116.024 23.9267 116.37 24.02 116.797 24.02C117.437 24.02 117.977 23.8333 118.417 23.46C118.857 23.0733 119.077 22.5333 119.077 21.84V20.94ZM128.067 15.08V19.28H132.227V15.08H135.207V26H132.227V21.5H128.067V26H125.087V15.08H128.067ZM145.49 15.08H148.77L144.45 20.32L149.15 26H145.77L141.31 20.46V26H138.33V15.08H141.31V20.38L145.49 15.08Z" fill="#1F1E25"/>
<path d="M5.27148 55H4.18164V47.7754L1.99609 48.5781V47.5938L5.10156 46.4277H5.27148V55ZM8.94531 50.7227L9.37891 46.4688H13.75V47.4707H10.2988L10.041 49.7969C10.459 49.5508 10.9336 49.4277 11.4648 49.4277C12.2422 49.4277 12.8594 49.6855 13.3164 50.2012C13.7734 50.7129 14.002 51.4062 14.002 52.2812C14.002 53.1602 13.7637 53.8535 13.2871 54.3613C12.8145 54.8652 12.1523 55.1172 11.3008 55.1172C10.5469 55.1172 9.93164 54.9082 9.45508 54.4902C8.97852 54.0723 8.70703 53.4941 8.64062 52.7559H9.66602C9.73242 53.2441 9.90625 53.6133 10.1875 53.8633C10.4688 54.1094 10.8398 54.2324 11.3008 54.2324C11.8047 54.2324 12.1992 54.0605 12.4844 53.7168C12.7734 53.373 12.918 52.8984 12.918 52.293C12.918 51.7227 12.7617 51.2656 12.4492 50.9219C12.1406 50.5742 11.7285 50.4004 11.2129 50.4004C10.7402 50.4004 10.3691 50.5039 10.0996 50.7109L9.8125 50.9453L8.94531 50.7227ZM20.5352 51.3613C20.5352 52.6309 20.3184 53.5742 19.8848 54.1914C19.4512 54.8086 18.7734 55.1172 17.8516 55.1172C16.9414 55.1172 16.2676 54.8164 15.8301 54.2148C15.3926 53.6094 15.166 52.707 15.1504 51.5078V50.0605C15.1504 48.8066 15.3672 47.875 15.8008 47.2656C16.2344 46.6562 16.9141 46.3516 17.8398 46.3516C18.7578 46.3516 19.4336 46.6465 19.8672 47.2363C20.3008 47.8223 20.5234 48.7285 20.5352 49.9551V51.3613ZM19.4512 49.8789C19.4512 48.9609 19.3223 48.293 19.0645 47.875C18.8066 47.4531 18.3984 47.2422 17.8398 47.2422C17.2852 47.2422 16.8809 47.4512 16.627 47.8691C16.373 48.2871 16.2422 48.9297 16.2344 49.7969V51.5312C16.2344 52.4531 16.3672 53.1348 16.6328 53.5762C16.9023 54.0137 17.3086 54.2324 17.8516 54.2324C18.3867 54.2324 18.7832 54.0254 19.041 53.6113C19.3027 53.1973 19.4395 52.5449 19.4512 51.6543V49.8789ZM27.2734 51.3613C27.2734 52.6309 27.0566 53.5742 26.623 54.1914C26.1895 54.8086 25.5117 55.1172 24.5898 55.1172C23.6797 55.1172 23.0059 54.8164 22.5684 54.2148C22.1309 53.6094 21.9043 52.707 21.8887 51.5078V50.0605C21.8887 48.8066 22.1055 47.875 22.5391 47.2656C22.9727 46.6562 23.6523 46.3516 24.5781 46.3516C25.4961 46.3516 26.1719 46.6465 26.6055 47.2363C27.0391 47.8223 27.2617 48.7285 27.2734 49.9551V51.3613ZM26.1895 49.8789C26.1895 48.9609 26.0605 48.293 25.8027 47.875C25.5449 47.4531 25.1367 47.2422 24.5781 47.2422C24.0234 47.2422 23.6191 47.4512 23.3652 47.8691C23.1113 48.2871 22.9805 48.9297 22.9727 49.7969V51.5312C22.9727 52.4531 23.1055 53.1348 23.3711 53.5762C23.6406 54.0137 24.0469 54.2324 24.5898 54.2324C25.125 54.2324 25.5215 54.0254 25.7793 53.6113C26.041 53.1973 26.1777 52.5449 26.1895 51.6543V49.8789ZM32.2246 55H31.1348V47.7754L28.9492 48.5781V47.5938L32.0547 46.4277H32.2246V55ZM35.8984 50.7227L36.332 46.4688H40.7031V47.4707H37.252L36.9941 49.7969C37.4121 49.5508 37.8867 49.4277 38.418 49.4277C39.1953 49.4277 39.8125 49.6855 40.2695 50.2012C40.7266 50.7129 40.9551 51.4062 40.9551 52.2812C40.9551 53.1602 40.7168 53.8535 40.2402 54.3613C39.7676 54.8652 39.1055 55.1172 38.2539 55.1172C37.5 55.1172 36.8848 54.9082 36.4082 54.4902C35.9316 54.0723 35.6602 53.4941 35.5938 52.7559H36.6191C36.6855 53.2441 36.8594 53.6133 37.1406 53.8633C37.4219 54.1094 37.793 54.2324 38.2539 54.2324C38.7578 54.2324 39.1523 54.0605 39.4375 53.7168C39.7266 53.373 39.8711 52.8984 39.8711 52.293C39.8711 51.7227 39.7148 51.2656 39.4023 50.9219C39.0938 50.5742 38.6816 50.4004 38.166 50.4004C37.6934 50.4004 37.3223 50.5039 37.0527 50.7109L36.7656 50.9453L35.8984 50.7227ZM42.2148 56.6992L41.5996 56.2773C41.9668 55.7656 42.1582 55.2383 42.1738 54.6953V53.7168H43.2344V54.5664C43.2344 54.9609 43.1367 55.3555 42.9414 55.75C42.75 56.1445 42.5078 56.4609 42.2148 56.6992ZM51.6777 49.5566H48.7539V55H47.6641V48.6602H51.6777V49.5566ZM52.6445 54.4316C52.6445 54.2441 52.6992 54.0879 52.8086 53.9629C52.9219 53.8379 53.0898 53.7754 53.3125 53.7754C53.5352 53.7754 53.7031 53.8379 53.8164 53.9629C53.9336 54.0879 53.9922 54.2441 53.9922 54.4316C53.9922 54.6113 53.9336 54.7617 53.8164 54.8828C53.7031 55.0039 53.5352 55.0645 53.3125 55.0645C53.0898 55.0645 52.9219 55.0039 52.8086 54.8828C52.6992 54.7617 52.6445 54.6113 52.6445 54.4316ZM60.3848 46.4688L63.1738 53.4297L65.9629 46.4688H67.4219V55H66.2969V51.6777L66.4023 48.0918L63.6016 55H62.7402L59.9453 48.1094L60.0566 51.6777V55H58.9316V46.4688H60.3848ZM68.9512 51.7715C68.9512 51.1504 69.0723 50.5918 69.3145 50.0957C69.5605 49.5996 69.9004 49.2168 70.334 48.9473C70.7715 48.6777 71.2695 48.543 71.8281 48.543C72.6914 48.543 73.3887 48.8418 73.9199 49.4395C74.4551 50.0371 74.7227 50.832 74.7227 51.8242V51.9004C74.7227 52.5176 74.6035 53.0723 74.3652 53.5645C74.1309 54.0527 73.793 54.4336 73.3516 54.707C72.9141 54.9805 72.4102 55.1172 71.8398 55.1172C70.9805 55.1172 70.2832 54.8184 69.748 54.2207C69.2168 53.623 68.9512 52.832 68.9512 51.8477V51.7715ZM70.041 51.9004C70.041 52.6035 70.2031 53.168 70.5273 53.5938C70.8555 54.0195 71.293 54.2324 71.8398 54.2324C72.3906 54.2324 72.8281 54.0176 73.1523 53.5879C73.4766 53.1543 73.6387 52.5488 73.6387 51.7715C73.6387 51.0762 73.4727 50.5137 73.1406 50.084C72.8125 49.6504 72.375 49.4336 71.8281 49.4336C71.293 49.4336 70.8613 49.6465 70.5332 50.0723C70.2051 50.498 70.041 51.1074 70.041 51.9004ZM78.625 54.2324C79.0117 54.2324 79.3496 54.1152 79.6387 53.8809C79.9277 53.6465 80.0879 53.3535 80.1191 53.002H81.1445C81.125 53.3652 81 53.7109 80.7695 54.0391C80.5391 54.3672 80.2305 54.6289 79.8438 54.8242C79.4609 55.0195 79.0547 55.1172 78.625 55.1172C77.7617 55.1172 77.0742 54.8301 76.5625 54.2559C76.0547 53.6777 75.8008 52.8887 75.8008 51.8887V51.707C75.8008 51.0898 75.9141 50.541 76.1406 50.0605C76.3672 49.5801 76.6914 49.207 77.1133 48.9414C77.5391 48.6758 78.041 48.543 78.6191 48.543C79.3301 48.543 79.9199 48.7559 80.3887 49.1816C80.8613 49.6074 81.1133 50.1602 81.1445 50.8398H80.1191C80.0879 50.4297 79.9316 50.0938 79.6504 49.832C79.373 49.5664 79.0293 49.4336 78.6191 49.4336C78.0684 49.4336 77.6406 49.6328 77.3359 50.0312C77.0352 50.4258 76.8848 50.998 76.8848 51.748V51.9531C76.8848 52.6836 77.0352 53.2461 77.3359 53.6406C77.6367 54.0352 78.0664 54.2324 78.625 54.2324ZM84.3379 52.2988H83.5469V55H82.457V48.6602H83.5469V51.3438H84.2559L86.3887 48.6602H87.7012L85.1934 51.707L87.9121 55H86.5352L84.3379 52.2988ZM88.9434 55V48.6602H91.416C92.2598 48.6602 92.9062 48.8086 93.3555 49.1055C93.8086 49.3984 94.0352 49.8301 94.0352 50.4004C94.0352 50.6934 93.9473 50.959 93.7715 51.1973C93.5957 51.4316 93.3359 51.6113 92.9922 51.7363C93.375 51.8262 93.6816 52.002 93.9121 52.2637C94.1465 52.5254 94.2637 52.8379 94.2637 53.2012C94.2637 53.7832 94.0488 54.2285 93.6191 54.5371C93.1934 54.8457 92.5898 55 91.8086 55H88.9434ZM90.0273 52.2168V54.127H91.8203C92.2734 54.127 92.6113 54.043 92.834 53.875C93.0605 53.707 93.1738 53.4707 93.1738 53.166C93.1738 52.5332 92.709 52.2168 91.7793 52.2168H90.0273ZM90.0273 51.3496H91.4277C92.4434 51.3496 92.9512 51.0527 92.9512 50.459C92.9512 49.8652 92.4707 49.5586 91.5098 49.5391H90.0273V51.3496ZM99.6133 55C99.5508 54.875 99.5 54.6523 99.4609 54.332C98.957 54.8555 98.3555 55.1172 97.6562 55.1172C97.0312 55.1172 96.5176 54.9414 96.1152 54.5898C95.7168 54.2344 95.5176 53.7852 95.5176 53.2422C95.5176 52.582 95.7676 52.0703 96.2676 51.707C96.7715 51.3398 97.4785 51.1562 98.3887 51.1562H99.4434V50.6582C99.4434 50.2793 99.3301 49.9785 99.1035 49.7559C98.877 49.5293 98.543 49.416 98.1016 49.416C97.7148 49.416 97.3906 49.5137 97.1289 49.709C96.8672 49.9043 96.7363 50.1406 96.7363 50.418H95.6465C95.6465 50.1016 95.7578 49.7969 95.9805 49.5039C96.207 49.207 96.5117 48.9727 96.8945 48.8008C97.2812 48.6289 97.7051 48.543 98.166 48.543C98.8965 48.543 99.4688 48.7266 99.8828 49.0938C100.297 49.457 100.512 49.959 100.527 50.5996V53.5176C100.527 54.0996 100.602 54.5625 100.75 54.9062V55H99.6133ZM97.8145 54.1738C98.1543 54.1738 98.4766 54.0859 98.7812 53.9102C99.0859 53.7344 99.3066 53.5059 99.4434 53.2246V51.9238H98.5938C97.2656 51.9238 96.6016 52.3125 96.6016 53.0898C96.6016 53.4297 96.7148 53.6953 96.9414 53.8867C97.168 54.0781 97.459 54.1738 97.8145 54.1738ZM102.191 56.6992L101.576 56.2773C101.943 55.7656 102.135 55.2383 102.15 54.6953V53.7168H103.211V54.5664C103.211 54.9609 103.113 55.3555 102.918 55.75C102.727 56.1445 102.484 56.4609 102.191 56.6992ZM109.633 53.4121L111.109 48.6602H112.27L109.721 55.9785C109.326 57.0332 108.699 57.5605 107.84 57.5605L107.635 57.543L107.23 57.4668V56.5879L107.523 56.6113C107.891 56.6113 108.176 56.5371 108.379 56.3887C108.586 56.2402 108.756 55.9688 108.889 55.5742L109.129 54.9297L106.867 48.6602H108.051L109.633 53.4121ZM118.193 48.6602V55H117.104V49.5566H114.947L114.818 51.9297C114.748 53.0195 114.564 53.7988 114.268 54.2676C113.975 54.7363 113.508 54.9805 112.867 55H112.434V54.0449L112.744 54.0215C113.096 53.9824 113.348 53.7793 113.5 53.4121C113.652 53.0449 113.75 52.3652 113.793 51.373L113.91 48.6602H118.193ZM119.957 54.4316C119.957 54.2441 120.012 54.0879 120.121 53.9629C120.234 53.8379 120.402 53.7754 120.625 53.7754C120.848 53.7754 121.016 53.8379 121.129 53.9629C121.246 54.0879 121.305 54.2441 121.305 54.4316C121.305 54.6113 121.246 54.7617 121.129 54.8828C121.016 55.0039 120.848 55.0645 120.625 55.0645C120.402 55.0645 120.234 55.0039 120.121 54.8828C120.012 54.7617 119.957 54.6113 119.957 54.4316ZM127.697 46.4688L130.486 53.4297L133.275 46.4688H134.734V55H133.609V51.6777L133.715 48.0918L130.914 55H130.053L127.258 48.1094L127.369 51.6777V55H126.244V46.4688H127.697ZM136.264 51.7715C136.264 51.1504 136.385 50.5918 136.627 50.0957C136.873 49.5996 137.213 49.2168 137.646 48.9473C138.084 48.6777 138.582 48.543 139.141 48.543C140.004 48.543 140.701 48.8418 141.232 49.4395C141.768 50.0371 142.035 50.832 142.035 51.8242V51.9004C142.035 52.5176 141.916 53.0723 141.678 53.5645C141.443 54.0527 141.105 54.4336 140.664 54.707C140.227 54.9805 139.723 55.1172 139.152 55.1172C138.293 55.1172 137.596 54.8184 137.061 54.2207C136.529 53.623 136.264 52.832 136.264 51.8477V51.7715ZM137.354 51.9004C137.354 52.6035 137.516 53.168 137.84 53.5938C138.168 54.0195 138.605 54.2324 139.152 54.2324C139.703 54.2324 140.141 54.0176 140.465 53.5879C140.789 53.1543 140.951 52.5488 140.951 51.7715C140.951 51.0762 140.785 50.5137 140.453 50.084C140.125 49.6504 139.688 49.4336 139.141 49.4336C138.605 49.4336 138.174 49.6465 137.846 50.0723C137.518 50.498 137.354 51.1074 137.354 51.9004ZM145.938 54.2324C146.324 54.2324 146.662 54.1152 146.951 53.8809C147.24 53.6465 147.4 53.3535 147.432 53.002H148.457C148.438 53.3652 148.312 53.7109 148.082 54.0391C147.852 54.3672 147.543 54.6289 147.156 54.8242C146.773 55.0195 146.367 55.1172 145.938 55.1172C145.074 55.1172 144.387 54.8301 143.875 54.2559C143.367 53.6777 143.113 52.8887 143.113 51.8887V51.707C143.113 51.0898 143.227 50.541 143.453 50.0605C143.68 49.5801 144.004 49.207 144.426 48.9414C144.852 48.6758 145.354 48.543 145.932 48.543C146.643 48.543 147.232 48.7559 147.701 49.1816C148.174 49.6074 148.426 50.1602 148.457 50.8398H147.432C147.4 50.4297 147.244 50.0938 146.963 49.832C146.686 49.5664 146.342 49.4336 145.932 49.4336C145.381 49.4336 144.953 49.6328 144.648 50.0312C144.348 50.4258 144.197 50.998 144.197 51.748V51.9531C144.197 52.6836 144.348 53.2461 144.648 53.6406C144.949 54.0352 145.379 54.2324 145.938 54.2324ZM151.65 52.2988H150.859V55H149.77V48.6602H150.859V51.3438H151.568L153.701 48.6602H155.014L152.506 51.707L155.225 55H153.848L151.65 52.2988ZM155.74 51.7715C155.74 51.1504 155.861 50.5918 156.104 50.0957C156.35 49.5996 156.689 49.2168 157.123 48.9473C157.561 48.6777 158.059 48.543 158.617 48.543C159.48 48.543 160.178 48.8418 160.709 49.4395C161.244 50.0371 161.512 50.832 161.512 51.8242V51.9004C161.512 52.5176 161.393 53.0723 161.154 53.5645C160.92 54.0527 160.582 54.4336 160.141 54.707C159.703 54.9805 159.199 55.1172 158.629 55.1172C157.77 55.1172 157.072 54.8184 156.537 54.2207C156.006 53.623 155.74 52.832 155.74 51.8477V51.7715ZM156.83 51.9004C156.83 52.6035 156.992 53.168 157.316 53.5938C157.645 54.0195 158.082 54.2324 158.629 54.2324C159.18 54.2324 159.617 54.0176 159.941 53.5879C160.266 53.1543 160.428 52.5488 160.428 51.7715C160.428 51.0762 160.262 50.5137 159.93 50.084C159.602 49.6504 159.164 49.4336 158.617 49.4336C158.082 49.4336 157.65 49.6465 157.322 50.0723C156.994 50.498 156.83 51.1074 156.83 51.9004ZM162.971 55V48.6602H165.443C166.287 48.6602 166.934 48.8086 167.383 49.1055C167.836 49.3984 168.062 49.8301 168.062 50.4004C168.062 50.6934 167.975 50.959 167.799 51.1973C167.623 51.4316 167.363 51.6113 167.02 51.7363C167.402 51.8262 167.709 52.002 167.939 52.2637C168.174 52.5254 168.291 52.8379 168.291 53.2012C168.291 53.7832 168.076 54.2285 167.646 54.5371C167.221 54.8457 166.617 55 165.836 55H162.971ZM164.055 52.2168V54.127H165.848C166.301 54.127 166.639 54.043 166.861 53.875C167.088 53.707 167.201 53.4707 167.201 53.166C167.201 52.5332 166.736 52.2168 165.807 52.2168H164.055ZM164.055 51.3496H165.455C166.471 51.3496 166.979 51.0527 166.979 50.459C166.979 49.8652 166.498 49.5586 165.537 49.5391H164.055V51.3496ZM172.27 54.2324C172.656 54.2324 172.994 54.1152 173.283 53.8809C173.572 53.6465 173.732 53.3535 173.764 53.002H174.789C174.77 53.3652 174.645 53.7109 174.414 54.0391C174.184 54.3672 173.875 54.6289 173.488 54.8242C173.105 55.0195 172.699 55.1172 172.27 55.1172C171.406 55.1172 170.719 54.8301 170.207 54.2559C169.699 53.6777 169.445 52.8887 169.445 51.8887V51.707C169.445 51.0898 169.559 50.541 169.785 50.0605C170.012 49.5801 170.336 49.207 170.758 48.9414C171.184 48.6758 171.686 48.543 172.264 48.543C172.975 48.543 173.564 48.7559 174.033 49.1816C174.506 49.6074 174.758 50.1602 174.789 50.8398H173.764C173.732 50.4297 173.576 50.0938 173.295 49.832C173.018 49.5664 172.674 49.4336 172.264 49.4336C171.713 49.4336 171.285 49.6328 170.98 50.0312C170.68 50.4258 170.529 50.998 170.529 51.748V51.9531C170.529 52.6836 170.68 53.2461 170.98 53.6406C171.281 54.0352 171.711 54.2324 172.27 54.2324ZM177.982 52.2988H177.191V55H176.102V48.6602H177.191V51.3438H177.9L180.033 48.6602H181.346L178.838 51.707L181.557 55H180.18L177.982 52.2988ZM186.402 55C186.34 54.875 186.289 54.6523 186.25 54.332C185.746 54.8555 185.145 55.1172 184.445 55.1172C183.82 55.1172 183.307 54.9414 182.904 54.5898C182.506 54.2344 182.307 53.7852 182.307 53.2422C182.307 52.582 182.557 52.0703 183.057 51.707C183.561 51.3398 184.268 51.1562 185.178 51.1562H186.232V50.6582C186.232 50.2793 186.119 49.9785 185.893 49.7559C185.666 49.5293 185.332 49.416 184.891 49.416C184.504 49.416 184.18 49.5137 183.918 49.709C183.656 49.9043 183.525 50.1406 183.525 50.418H182.436C182.436 50.1016 182.547 49.7969 182.77 49.5039C182.996 49.207 183.301 48.9727 183.684 48.8008C184.07 48.6289 184.494 48.543 184.955 48.543C185.686 48.543 186.258 48.7266 186.672 49.0938C187.086 49.457 187.301 49.959 187.316 50.5996V53.5176C187.316 54.0996 187.391 54.5625 187.539 54.9062V55H186.402ZM184.604 54.1738C184.943 54.1738 185.266 54.0859 185.57 53.9102C185.875 53.7344 186.096 53.5059 186.232 53.2246V51.9238H185.383C184.055 51.9238 183.391 52.3125 183.391 53.0898C183.391 53.4297 183.504 53.6953 183.73 53.8867C183.957 54.0781 184.248 54.1738 184.604 54.1738ZM193.861 48.6602V55H192.771V52.5332H191.137L189.643 55H188.471L190.064 52.3691C189.658 52.2207 189.346 51.9922 189.127 51.6836C188.912 51.3711 188.805 51.0078 188.805 50.5938C188.805 50.0156 189.021 49.5508 189.455 49.1992C189.889 48.8438 190.469 48.6641 191.195 48.6602H193.861ZM189.895 50.6055C189.895 50.9141 190 51.1641 190.211 51.3555C190.422 51.543 190.701 51.6387 191.049 51.6426H192.771V49.5391H191.213C190.811 49.5391 190.49 49.6387 190.252 49.8379C190.014 50.0332 189.895 50.2891 189.895 50.6055ZM195.566 56.6992L194.951 56.2773C195.318 55.7656 195.51 55.2383 195.525 54.6953V53.7168H196.586V54.5664C196.586 54.9609 196.488 55.3555 196.293 55.75C196.102 56.1445 195.859 56.4609 195.566 56.6992ZM200.881 54.1152L201.256 53.6523C201.678 53.1055 201.918 52.2852 201.977 51.1914L202.076 48.6602H206.16V54.1152H206.975V56.8633H205.891V55H201.467V56.8633H200.383L200.389 54.1152H200.881ZM202.164 54.1152H205.076V49.6621H203.125L203.061 51.1738C202.994 52.4355 202.695 53.416 202.164 54.1152ZM208.199 54.4316C208.199 54.2441 208.254 54.0879 208.363 53.9629C208.477 53.8379 208.645 53.7754 208.867 53.7754C209.09 53.7754 209.258 53.8379 209.371 53.9629C209.488 54.0879 209.547 54.2441 209.547 54.4316C209.547 54.6113 209.488 54.7617 209.371 54.8828C209.258 55.0039 209.09 55.0645 208.867 55.0645C208.645 55.0645 208.477 55.0039 208.363 54.8828C208.254 54.7617 208.199 54.6113 208.199 54.4316ZM215.781 50.207H216.596C217.107 50.1992 217.51 50.0645 217.803 49.8027C218.096 49.541 218.242 49.1875 218.242 48.7422C218.242 47.7422 217.744 47.2422 216.748 47.2422C216.279 47.2422 215.904 47.377 215.623 47.6465C215.346 47.9121 215.207 48.2656 215.207 48.707H214.123C214.123 48.0312 214.369 47.4707 214.861 47.0254C215.357 46.5762 215.986 46.3516 216.748 46.3516C217.553 46.3516 218.184 46.5645 218.641 46.9902C219.098 47.416 219.326 48.0078 219.326 48.7656C219.326 49.1367 219.205 49.4961 218.963 49.8438C218.725 50.1914 218.398 50.4512 217.984 50.623C218.453 50.7715 218.814 51.0176 219.068 51.3613C219.326 51.7051 219.455 52.125 219.455 52.6211C219.455 53.3867 219.205 53.9941 218.705 54.4434C218.205 54.8926 217.555 55.1172 216.754 55.1172C215.953 55.1172 215.301 54.9004 214.797 54.4668C214.297 54.0332 214.047 53.4609 214.047 52.75H215.137C215.137 53.1992 215.283 53.5586 215.576 53.8281C215.869 54.0977 216.262 54.2324 216.754 54.2324C217.277 54.2324 217.678 54.0957 217.955 53.8223C218.232 53.5488 218.371 53.1562 218.371 52.6445C218.371 52.1484 218.219 51.7676 217.914 51.502C217.609 51.2363 217.17 51.0996 216.596 51.0918H215.781V50.207ZM226.533 55H220.943V54.2207L223.896 50.9395C224.334 50.4434 224.635 50.041 224.799 49.7324C224.967 49.4199 225.051 49.0977 225.051 48.7656C225.051 48.3203 224.916 47.9551 224.646 47.6699C224.377 47.3848 224.018 47.2422 223.568 47.2422C223.029 47.2422 222.609 47.3965 222.309 47.7051C222.012 48.0098 221.863 48.4355 221.863 48.9824H220.779C220.779 48.1973 221.031 47.5625 221.535 47.0781C222.043 46.5938 222.721 46.3516 223.568 46.3516C224.361 46.3516 224.988 46.5605 225.449 46.9785C225.91 47.3926 226.141 47.9453 226.141 48.6367C226.141 49.4766 225.605 50.4766 224.535 51.6367L222.25 54.1152H226.533V55ZM7.28125 64.3945H3.16797V72H2.03711V63.4688H7.28125V64.3945ZM10.0293 72.1172C9.16992 72.1172 8.4707 71.8359 7.93164 71.2734C7.39258 70.707 7.12305 69.9512 7.12305 69.0059V68.8066C7.12305 68.1777 7.24219 67.6172 7.48047 67.125C7.72266 66.6289 8.05859 66.2422 8.48828 65.9648C8.92188 65.6836 9.39062 65.543 9.89453 65.543C10.7188 65.543 11.3594 65.8145 11.8164 66.3574C12.2734 66.9004 12.502 67.6777 12.502 68.6895V69.1406H8.20703C8.22266 69.7656 8.4043 70.2715 8.75195 70.6582C9.10352 71.041 9.54883 71.2324 10.0879 71.2324C10.4707 71.2324 10.7949 71.1543 11.0605 70.998C11.3262 70.8418 11.5586 70.6348 11.7578 70.377L12.4199 70.8926C11.8887 71.709 11.0918 72.1172 10.0293 72.1172ZM9.89453 66.4336C9.45703 66.4336 9.08984 66.5938 8.79297 66.9141C8.49609 67.2305 8.3125 67.6758 8.24219 68.25H11.418V68.168C11.3867 67.6172 11.2383 67.1914 10.9727 66.8906C10.707 66.5859 10.3477 66.4336 9.89453 66.4336ZM18.9414 72H17.8574V69.293H14.9453V72H13.8555V65.6602H14.9453V68.4082H17.8574V65.6602H18.9414V72ZM23.3184 72.1172C22.459 72.1172 21.7598 71.8359 21.2207 71.2734C20.6816 70.707 20.4121 69.9512 20.4121 69.0059V68.8066C20.4121 68.1777 20.5312 67.6172 20.7695 67.125C21.0117 66.6289 21.3477 66.2422 21.7773 65.9648C22.2109 65.6836 22.6797 65.543 23.1836 65.543C24.0078 65.543 24.6484 65.8145 25.1055 66.3574C25.5625 66.9004 25.791 67.6777 25.791 68.6895V69.1406H21.4961C21.5117 69.7656 21.6934 70.2715 22.041 70.6582C22.3926 71.041 22.8379 71.2324 23.377 71.2324C23.7598 71.2324 24.084 71.1543 24.3496 70.998C24.6152 70.8418 24.8477 70.6348 25.0469 70.377L25.709 70.8926C25.1777 71.709 24.3809 72.1172 23.3184 72.1172ZM23.1836 66.4336C22.7461 66.4336 22.3789 66.5938 22.082 66.9141C21.7852 67.2305 21.6016 67.6758 21.5312 68.25H24.707V68.168C24.6758 67.6172 24.5273 67.1914 24.2617 66.8906C23.9961 66.5859 23.6367 66.4336 23.1836 66.4336ZM32.4062 68.9004C32.4062 69.8652 32.1855 70.6426 31.7441 71.2324C31.3027 71.8223 30.7051 72.1172 29.9512 72.1172C29.1816 72.1172 28.5762 71.873 28.1348 71.3848V74.4375H27.0508V65.6602H28.041L28.0938 66.3633C28.5352 65.8164 29.1484 65.543 29.9336 65.543C30.6953 65.543 31.2969 65.8301 31.7383 66.4043C32.1836 66.9785 32.4062 67.7773 32.4062 68.8008V68.9004ZM31.3223 68.7773C31.3223 68.0625 31.1699 67.498 30.8652 67.084C30.5605 66.6699 30.1426 66.4629 29.6113 66.4629C28.9551 66.4629 28.4629 66.7539 28.1348 67.3359V70.3652C28.459 70.9434 28.9551 71.2324 29.623 71.2324C30.1426 71.2324 30.5547 71.0273 30.8594 70.6172C31.168 70.2031 31.3223 69.5898 31.3223 68.7773ZM37.7031 72C37.6406 71.875 37.5898 71.6523 37.5508 71.332C37.0469 71.8555 36.4453 72.1172 35.7461 72.1172C35.1211 72.1172 34.6074 71.9414 34.2051 71.5898C33.8066 71.2344 33.6074 70.7852 33.6074 70.2422C33.6074 69.582 33.8574 69.0703 34.3574 68.707C34.8613 68.3398 35.5684 68.1562 36.4785 68.1562H37.5332V67.6582C37.5332 67.2793 37.4199 66.9785 37.1934 66.7559C36.9668 66.5293 36.6328 66.416 36.1914 66.416C35.8047 66.416 35.4805 66.5137 35.2188 66.709C34.957 66.9043 34.8262 67.1406 34.8262 67.418H33.7363C33.7363 67.1016 33.8477 66.7969 34.0703 66.5039C34.2969 66.207 34.6016 65.9727 34.9844 65.8008C35.3711 65.6289 35.7949 65.543 36.2559 65.543C36.9863 65.543 37.5586 65.7266 37.9727 66.0938C38.3867 66.457 38.6016 66.959 38.6172 67.5996V70.5176C38.6172 71.0996 38.6914 71.5625 38.8398 71.9062V72H37.7031ZM35.9043 71.1738C36.2441 71.1738 36.5664 71.0859 36.8711 70.9102C37.1758 70.7344 37.3965 70.5059 37.5332 70.2246V68.9238H36.6836C35.3555 68.9238 34.6914 69.3125 34.6914 70.0898C34.6914 70.4297 34.8047 70.6953 35.0312 70.8867C35.2578 71.0781 35.5488 71.1738 35.9043 71.1738ZM45.5137 65.6602V72H44.4238V66.5566H42.2676L42.1387 68.9297C42.0684 70.0195 41.8848 70.7988 41.5879 71.2676C41.2949 71.7363 40.8281 71.9805 40.1875 72H39.7539V71.0449L40.0645 71.0215C40.416 70.9824 40.668 70.7793 40.8203 70.4121C40.9727 70.0449 41.0703 69.3652 41.1133 68.373L41.2305 65.6602H45.5137ZM48.4375 67.8457H50.084C50.8027 67.8535 51.3711 68.041 51.7891 68.4082C52.207 68.7754 52.416 69.2734 52.416 69.9023C52.416 70.5352 52.2012 71.043 51.7715 71.4258C51.3418 71.8086 50.7637 72 50.0371 72H47.3535V65.6602H48.4375V67.8457ZM48.4375 68.7305V71.1152H50.0488C50.4551 71.1152 50.7695 71.0117 50.9922 70.8047C51.2148 70.5938 51.3262 70.3066 51.3262 69.9434C51.3262 69.5918 51.2168 69.3047 50.998 69.082C50.7832 68.8555 50.4805 68.7383 50.0898 68.7305H48.4375ZM58.9492 72H57.8652V69.293H54.9531V72H53.8633V65.6602H54.9531V68.4082H57.8652V65.6602H58.9492V72ZM64.6094 72C64.5469 71.875 64.4961 71.6523 64.457 71.332C63.9531 71.8555 63.3516 72.1172 62.6523 72.1172C62.0273 72.1172 61.5137 71.9414 61.1113 71.5898C60.7129 71.2344 60.5137 70.7852 60.5137 70.2422C60.5137 69.582 60.7637 69.0703 61.2637 68.707C61.7676 68.3398 62.4746 68.1562 63.3848 68.1562H64.4395V67.6582C64.4395 67.2793 64.3262 66.9785 64.0996 66.7559C63.873 66.5293 63.5391 66.416 63.0977 66.416C62.7109 66.416 62.3867 66.5137 62.125 66.709C61.8633 66.9043 61.7324 67.1406 61.7324 67.418H60.6426C60.6426 67.1016 60.7539 66.7969 60.9766 66.5039C61.2031 66.207 61.5078 65.9727 61.8906 65.8008C62.2773 65.6289 62.7012 65.543 63.1621 65.543C63.8926 65.543 64.4648 65.7266 64.8789 66.0938C65.293 66.457 65.5078 66.959 65.5234 67.5996V70.5176C65.5234 71.0996 65.5977 71.5625 65.7461 71.9062V72H64.6094ZM62.8105 71.1738C63.1504 71.1738 63.4727 71.0859 63.7773 70.9102C64.082 70.7344 64.3027 70.5059 64.4395 70.2246V68.9238H63.5898C62.2617 68.9238 61.5977 69.3125 61.5977 70.0898C61.5977 70.4297 61.7109 70.6953 61.9375 70.8867C62.1641 71.0781 62.4551 71.1738 62.8105 71.1738ZM72.0684 65.6602V72H70.9785V69.5332H69.3438L67.8496 72H66.6777L68.2715 69.3691C67.8652 69.2207 67.5527 68.9922 67.334 68.6836C67.1191 68.3711 67.0117 68.0078 67.0117 67.5938C67.0117 67.0156 67.2285 66.5508 67.6621 66.1992C68.0957 65.8438 68.6758 65.6641 69.4023 65.6602H72.0684ZM68.1016 67.6055C68.1016 67.9141 68.207 68.1641 68.418 68.3555C68.6289 68.543 68.9082 68.6387 69.2559 68.6426H70.9785V66.5391H69.4199C69.0176 66.5391 68.6973 66.6387 68.459 66.8379C68.2207 67.0332 68.1016 67.2891 68.1016 67.6055ZM81.9824 65.6602V72H80.8926V66.5566H78.7363L78.6074 68.9297C78.5371 70.0195 78.3535 70.7988 78.0566 71.2676C77.7637 71.7363 77.2969 71.9805 76.6562 72H76.2227V71.0449L76.5332 71.0215C76.8848 70.9824 77.1367 70.7793 77.2891 70.4121C77.4414 70.0449 77.5391 69.3652 77.582 68.373L77.6992 65.6602H81.9824ZM87.8242 65.6602H88.9082V72H87.8242V67.377L84.9004 72H83.8164V65.6602H84.9004V70.2891L87.8242 65.6602ZM90.7422 65.6602H91.832V71.1152H94.75V65.6602H95.834V71.1152H96.5898L96.4844 73.8809H95.5117V72H90.7422V65.6602ZM100.393 72.1172C99.5332 72.1172 98.834 71.8359 98.2949 71.2734C97.7559 70.707 97.4863 69.9512 97.4863 69.0059V68.8066C97.4863 68.1777 97.6055 67.6172 97.8438 67.125C98.0859 66.6289 98.4219 66.2422 98.8516 65.9648C99.2852 65.6836 99.7539 65.543 100.258 65.543C101.082 65.543 101.723 65.8145 102.18 66.3574C102.637 66.9004 102.865 67.6777 102.865 68.6895V69.1406H98.5703C98.5859 69.7656 98.7676 70.2715 99.1152 70.6582C99.4668 71.041 99.9121 71.2324 100.451 71.2324C100.834 71.2324 101.158 71.1543 101.424 70.998C101.689 70.8418 101.922 70.6348 102.121 70.377L102.783 70.8926C102.252 71.709 101.455 72.1172 100.393 72.1172ZM100.258 66.4336C99.8203 66.4336 99.4531 66.5938 99.1562 66.9141C98.8594 67.2305 98.6758 67.6758 98.6055 68.25H101.781V68.168C101.75 67.6172 101.602 67.1914 101.336 66.8906C101.07 66.5859 100.711 66.4336 100.258 66.4336ZM109.305 72H108.221V69.293H105.309V72H104.219V65.6602H105.309V68.4082H108.221V65.6602H109.305V72ZM114.537 67.3945C114.537 67.0977 114.424 66.8633 114.197 66.6914C113.971 66.5156 113.66 66.4277 113.266 66.4277C112.883 66.4277 112.562 66.5273 112.305 66.7266C112.051 66.9258 111.924 67.1602 111.924 67.4297H110.846C110.846 66.8789 111.076 66.4277 111.537 66.0762C111.998 65.7246 112.574 65.5488 113.266 65.5488C114.008 65.5488 114.586 65.709 115 66.0293C115.414 66.3457 115.621 66.7988 115.621 67.3887C115.621 67.6738 115.535 67.9355 115.363 68.1738C115.191 68.4121 114.947 68.6016 114.631 68.7422C115.369 68.9922 115.738 69.4844 115.738 70.2188C115.738 70.8008 115.514 71.2617 115.064 71.6016C114.615 71.9414 114.016 72.1113 113.266 72.1113C112.535 72.1113 111.932 71.9336 111.455 71.5781C110.982 71.2188 110.746 70.7344 110.746 70.125H111.824C111.824 70.4336 111.961 70.6992 112.234 70.9219C112.512 71.1406 112.855 71.25 113.266 71.25C113.68 71.25 114.014 71.1543 114.268 70.9629C114.521 70.7715 114.648 70.5234 114.648 70.2188C114.648 69.8633 114.541 69.6094 114.326 69.457C114.115 69.3008 113.785 69.2227 113.336 69.2227H112.252V68.3086H113.43C114.168 68.2891 114.537 67.9844 114.537 67.3945ZM121.246 65.6602H122.33V72H121.246V67.377L118.322 72H117.238V65.6602H118.322V70.2891L121.246 65.6602ZM128.916 65.6602V72H127.826V69.5332H126.191L124.697 72H123.525L125.119 69.3691C124.713 69.2207 124.4 68.9922 124.182 68.6836C123.967 68.3711 123.859 68.0078 123.859 67.5938C123.859 67.0156 124.076 66.5508 124.51 66.1992C124.943 65.8438 125.523 65.6641 126.25 65.6602H128.916ZM124.949 67.6055C124.949 67.9141 125.055 68.1641 125.266 68.3555C125.477 68.543 125.756 68.6387 126.104 68.6426H127.826V66.5391H126.268C125.865 66.5391 125.545 66.6387 125.307 66.8379C125.068 67.0332 124.949 67.2891 124.949 67.6055ZM139.006 64.3945H134.893V66.9492H137.014C137.904 66.9609 138.6 67.1895 139.1 67.6348C139.6 68.0801 139.85 68.6855 139.85 69.4512C139.85 70.2207 139.598 70.834 139.094 71.291C138.59 71.748 137.902 71.9844 137.031 72H133.762V63.4688H139.006V64.3945ZM134.893 67.875V71.0801H136.949C137.508 71.0801 137.941 70.9316 138.25 70.6348C138.562 70.3379 138.719 69.9395 138.719 69.4395C138.719 68.959 138.568 68.5801 138.268 68.3027C137.971 68.0254 137.547 67.8828 136.996 67.875H134.893ZM145.117 72C145.055 71.875 145.004 71.6523 144.965 71.332C144.461 71.8555 143.859 72.1172 143.16 72.1172C142.535 72.1172 142.021 71.9414 141.619 71.5898C141.221 71.2344 141.021 70.7852 141.021 70.2422C141.021 69.582 141.271 69.0703 141.771 68.707C142.275 68.3398 142.982 68.1562 143.893 68.1562H144.947V67.6582C144.947 67.2793 144.834 66.9785 144.607 66.7559C144.381 66.5293 144.047 66.416 143.605 66.416C143.219 66.416 142.895 66.5137 142.633 66.709C142.371 66.9043 142.24 67.1406 142.24 67.418H141.15C141.15 67.1016 141.262 66.7969 141.484 66.5039C141.711 66.207 142.016 65.9727 142.398 65.8008C142.785 65.6289 143.209 65.543 143.67 65.543C144.4 65.543 144.973 65.7266 145.387 66.0938C145.801 66.457 146.016 66.959 146.031 67.5996V70.5176C146.031 71.0996 146.105 71.5625 146.254 71.9062V72H145.117ZM143.318 71.1738C143.658 71.1738 143.98 71.0859 144.285 70.9102C144.59 70.7344 144.811 70.5059 144.947 70.2246V68.9238H144.098C142.77 68.9238 142.105 69.3125 142.105 70.0898C142.105 70.4297 142.219 70.6953 142.445 70.8867C142.672 71.0781 142.963 71.1738 143.318 71.1738ZM152.91 72H151.826V69.293H148.914V72H147.824V65.6602H148.914V68.4082H151.826V65.6602H152.91V72ZM156.631 69.2988H155.84V72H154.75V65.6602H155.84V68.3438H156.549L158.682 65.6602H159.994L157.486 68.707L160.205 72H158.828L156.631 69.2988ZM165.051 72C164.988 71.875 164.938 71.6523 164.898 71.332C164.395 71.8555 163.793 72.1172 163.094 72.1172C162.469 72.1172 161.955 71.9414 161.553 71.5898C161.154 71.2344 160.955 70.7852 160.955 70.2422C160.955 69.582 161.205 69.0703 161.705 68.707C162.209 68.3398 162.916 68.1562 163.826 68.1562H164.881V67.6582C164.881 67.2793 164.768 66.9785 164.541 66.7559C164.314 66.5293 163.98 66.416 163.539 66.416C163.152 66.416 162.828 66.5137 162.566 66.709C162.305 66.9043 162.174 67.1406 162.174 67.418H161.084C161.084 67.1016 161.195 66.7969 161.418 66.5039C161.645 66.207 161.949 65.9727 162.332 65.8008C162.719 65.6289 163.143 65.543 163.604 65.543C164.334 65.543 164.906 65.7266 165.32 66.0938C165.734 66.457 165.949 66.959 165.965 67.5996V70.5176C165.965 71.0996 166.039 71.5625 166.188 71.9062V72H165.051ZM163.252 71.1738C163.592 71.1738 163.914 71.0859 164.219 70.9102C164.523 70.7344 164.744 70.5059 164.881 70.2246V68.9238H164.031C162.703 68.9238 162.039 69.3125 162.039 70.0898C162.039 70.4297 162.152 70.6953 162.379 70.8867C162.605 71.0781 162.896 71.1738 163.252 71.1738ZM171.936 68.6602V72H170.811V63.4688H173.957C174.891 63.4688 175.621 63.707 176.148 64.1836C176.68 64.6602 176.945 65.291 176.945 66.0762C176.945 66.9043 176.686 67.543 176.166 67.9922C175.65 68.4375 174.91 68.6602 173.945 68.6602H171.936ZM171.936 67.7402H173.957C174.559 67.7402 175.02 67.5996 175.34 67.3184C175.66 67.0332 175.82 66.623 175.82 66.0879C175.82 65.5801 175.66 65.1738 175.34 64.8691C175.02 64.5645 174.58 64.4062 174.021 64.3945H171.936V67.7402ZM177.842 68.7715C177.842 68.1504 177.963 67.5918 178.205 67.0957C178.451 66.5996 178.791 66.2168 179.225 65.9473C179.662 65.6777 180.16 65.543 180.719 65.543C181.582 65.543 182.279 65.8418 182.811 66.4395C183.346 67.0371 183.613 67.832 183.613 68.8242V68.9004C183.613 69.5176 183.494 70.0723 183.256 70.5645C183.021 71.0527 182.684 71.4336 182.242 71.707C181.805 71.9805 181.301 72.1172 180.73 72.1172C179.871 72.1172 179.174 71.8184 178.639 71.2207C178.107 70.623 177.842 69.832 177.842 68.8477V68.7715ZM178.932 68.9004C178.932 69.6035 179.094 70.168 179.418 70.5938C179.746 71.0195 180.184 71.2324 180.73 71.2324C181.281 71.2324 181.719 71.0176 182.043 70.5879C182.367 70.1543 182.529 69.5488 182.529 68.7715C182.529 68.0762 182.363 67.5137 182.031 67.084C181.703 66.6504 181.266 66.4336 180.719 66.4336C180.184 66.4336 179.752 66.6465 179.424 67.0723C179.096 67.498 178.932 68.1074 178.932 68.9004ZM187.516 71.2324C187.902 71.2324 188.24 71.1152 188.529 70.8809C188.818 70.6465 188.979 70.3535 189.01 70.002H190.035C190.016 70.3652 189.891 70.7109 189.66 71.0391C189.43 71.3672 189.121 71.6289 188.734 71.8242C188.352 72.0195 187.945 72.1172 187.516 72.1172C186.652 72.1172 185.965 71.8301 185.453 71.2559C184.945 70.6777 184.691 69.8887 184.691 68.8887V68.707C184.691 68.0898 184.805 67.541 185.031 67.0605C185.258 66.5801 185.582 66.207 186.004 65.9414C186.43 65.6758 186.932 65.543 187.51 65.543C188.221 65.543 188.811 65.7559 189.279 66.1816C189.752 66.6074 190.004 67.1602 190.035 67.8398H189.01C188.979 67.4297 188.822 67.0938 188.541 66.832C188.264 66.5664 187.92 66.4336 187.51 66.4336C186.959 66.4336 186.531 66.6328 186.227 67.0312C185.926 67.4258 185.775 67.998 185.775 68.748V68.9531C185.775 69.6836 185.926 70.2461 186.227 70.6406C186.527 71.0352 186.957 71.2324 187.516 71.2324ZM193.797 71.2324C194.184 71.2324 194.521 71.1152 194.811 70.8809C195.1 70.6465 195.26 70.3535 195.291 70.002H196.316C196.297 70.3652 196.172 70.7109 195.941 71.0391C195.711 71.3672 195.402 71.6289 195.016 71.8242C194.633 72.0195 194.227 72.1172 193.797 72.1172C192.934 72.1172 192.246 71.8301 191.734 71.2559C191.227 70.6777 190.973 69.8887 190.973 68.8887V68.707C190.973 68.0898 191.086 67.541 191.312 67.0605C191.539 66.5801 191.863 66.207 192.285 65.9414C192.711 65.6758 193.213 65.543 193.791 65.543C194.502 65.543 195.092 65.7559 195.561 66.1816C196.033 66.6074 196.285 67.1602 196.316 67.8398H195.291C195.26 67.4297 195.104 67.0938 194.822 66.832C194.545 66.5664 194.201 66.4336 193.791 66.4336C193.24 66.4336 192.812 66.6328 192.508 67.0312C192.207 67.4258 192.057 67.998 192.057 68.748V68.9531C192.057 69.6836 192.207 70.2461 192.508 70.6406C192.809 71.0352 193.238 71.2324 193.797 71.2324ZM201.637 65.6602H202.721V72H201.637V67.377L198.713 72H197.629V65.6602H198.713V70.2891L201.637 65.6602ZM208.562 65.6602H209.646V72H208.562V67.377L205.639 72H204.555V65.6602H205.639V70.2891L208.562 65.6602ZM225.004 69.5859H221.4V68.7539H225.004V69.5859ZM221.189 65.3965C221.189 64.791 221.371 64.3027 221.734 63.9316C222.098 63.5605 222.584 63.375 223.193 63.375C223.803 63.375 224.289 63.5586 224.652 63.9258C225.02 64.2891 225.203 64.7891 225.203 65.4258V65.9707C225.203 66.584 225.021 67.0723 224.658 67.4355C224.299 67.7988 223.814 67.9805 223.205 67.9805C222.588 67.9805 222.098 67.7988 221.734 67.4355C221.371 67.0684 221.189 66.5703 221.189 65.9414V65.3965ZM222.145 65.9707C222.145 66.3535 222.236 66.6504 222.42 66.8613C222.607 67.0684 222.869 67.1719 223.205 67.1719C223.533 67.1719 223.787 67.0684 223.967 66.8613C224.15 66.6543 224.244 66.3633 224.248 65.9883V65.3965C224.248 65.0176 224.154 64.7246 223.967 64.5176C223.783 64.3066 223.525 64.2012 223.193 64.2012C222.865 64.2012 222.607 64.3066 222.42 64.5176C222.236 64.7246 222.145 65.0215 222.145 65.4082V65.9707ZM220.246 72H219.051L215.576 65.3555V72H214.492V63.4688H215.682L219.174 70.1309V63.4688H220.246V72ZM230.154 72H229.064V64.7754L226.879 65.5781V64.5938L229.984 63.4277H230.154V72ZM238.68 68.3613C238.68 69.6309 238.463 70.5742 238.029 71.1914C237.596 71.8086 236.918 72.1172 235.996 72.1172C235.086 72.1172 234.412 71.8164 233.975 71.2148C233.537 70.6094 233.311 69.707 233.295 68.5078V67.0605C233.295 65.8066 233.512 64.875 233.945 64.2656C234.379 63.6562 235.059 63.3516 235.984 63.3516C236.902 63.3516 237.578 63.6465 238.012 64.2363C238.445 64.8223 238.668 65.7285 238.68 66.9551V68.3613ZM237.596 66.8789C237.596 65.9609 237.467 65.293 237.209 64.875C236.951 64.4531 236.543 64.2422 235.984 64.2422C235.43 64.2422 235.025 64.4512 234.771 64.8691C234.518 65.2871 234.387 65.9297 234.379 66.7969V68.5312C234.379 69.4531 234.512 70.1348 234.777 70.5762C235.047 71.0137 235.453 71.2324 235.996 71.2324C236.531 71.2324 236.928 71.0254 237.186 70.6113C237.447 70.1973 237.584 69.5449 237.596 68.6543V66.8789ZM240.566 67.7227L241 63.4688H245.371V64.4707H241.92L241.662 66.7969C242.08 66.5508 242.555 66.4277 243.086 66.4277C243.863 66.4277 244.48 66.6855 244.938 67.2012C245.395 67.7129 245.623 68.4062 245.623 69.2812C245.623 70.1602 245.385 70.8535 244.908 71.3613C244.436 71.8652 243.773 72.1172 242.922 72.1172C242.168 72.1172 241.553 71.9082 241.076 71.4902C240.6 71.0723 240.328 70.4941 240.262 69.7559H241.287C241.354 70.2441 241.527 70.6133 241.809 70.8633C242.09 71.1094 242.461 71.2324 242.922 71.2324C243.426 71.2324 243.82 71.0605 244.105 70.7168C244.395 70.373 244.539 69.8984 244.539 69.293C244.539 68.7227 244.383 68.2656 244.07 67.9219C243.762 67.5742 243.35 67.4004 242.834 67.4004C242.361 67.4004 241.99 67.5039 241.721 67.7109L241.434 67.9453L240.566 67.7227ZM252.156 68.3613C252.156 69.6309 251.939 70.5742 251.506 71.1914C251.072 71.8086 250.395 72.1172 249.473 72.1172C248.562 72.1172 247.889 71.8164 247.451 71.2148C247.014 70.6094 246.787 69.707 246.771 68.5078V67.0605C246.771 65.8066 246.988 64.875 247.422 64.2656C247.855 63.6562 248.535 63.3516 249.461 63.3516C250.379 63.3516 251.055 63.6465 251.488 64.2363C251.922 64.8223 252.145 65.7285 252.156 66.9551V68.3613ZM251.072 66.8789C251.072 65.9609 250.943 65.293 250.686 64.875C250.428 64.4531 250.02 64.2422 249.461 64.2422C248.906 64.2422 248.502 64.4512 248.248 64.8691C247.994 65.2871 247.863 65.9297 247.855 66.7969V68.5312C247.855 69.4531 247.988 70.1348 248.254 70.5762C248.523 71.0137 248.93 71.2324 249.473 71.2324C250.008 71.2324 250.404 71.0254 250.662 70.6113C250.924 70.1973 251.061 69.5449 251.072 68.6543V66.8789ZM7 89.66C6.32 89.66 5.68 89.532 5.08 89.276C4.48 89.02 3.952 88.668 3.496 88.22C3.048 87.764 2.696 87.236 2.44 86.636C2.184 86.036 2.056 85.396 2.056 84.716C2.056 84.028 2.184 83.388 2.44 82.796C2.696 82.196 3.048 81.672 3.496 81.224C3.952 80.768 4.48 80.412 5.08 80.156C5.68 79.9 6.32 79.772 7 79.772C7.688 79.772 8.328 79.9 8.92 80.156C9.52 80.412 10.044 80.768 10.492 81.224C10.948 81.672 11.304 82.196 11.56 82.796C11.816 83.388 11.944 84.028 11.944 84.716C11.944 85.396 11.816 86.036 11.56 86.636C11.304 87.236 10.948 87.764 10.492 88.22C10.044 88.668 9.52 89.02 8.92 89.276C8.328 89.532 7.688 89.66 7 89.66ZM7 88.988C7.592 88.988 8.144 88.88 8.656 88.664C9.176 88.44 9.632 88.132 10.024 87.74C10.416 87.348 10.72 86.896 10.936 86.384C11.16 85.864 11.272 85.308 11.272 84.716C11.272 84.124 11.16 83.572 10.936 83.06C10.72 82.54 10.416 82.084 10.024 81.692C9.632 81.3 9.176 80.996 8.656 80.78C8.144 80.556 7.592 80.444 7 80.444C6.408 80.444 5.852 80.556 5.332 80.78C4.82 80.996 4.368 81.3 3.976 81.692C3.584 82.084 3.276 82.54 3.052 83.06C2.836 83.572 2.728 84.124 2.728 84.716C2.728 85.308 2.836 85.864 3.052 86.384C3.276 86.896 3.584 87.348 3.976 87.74C4.368 88.132 4.82 88.44 5.332 88.664C5.852 88.88 6.408 88.988 7 88.988ZM7.18 87.368C6.284 87.368 5.624 87.128 5.2 86.648C4.776 86.168 4.564 85.512 4.564 84.68C4.564 83.84 4.796 83.184 5.26 82.712C5.732 82.232 6.364 81.992 7.156 81.992C7.732 81.992 8.236 82.1 8.668 82.316L8.368 82.928C8.008 82.752 7.6 82.664 7.144 82.664C6.616 82.664 6.2 82.84 5.896 83.192C5.592 83.544 5.44 84.044 5.44 84.692C5.44 86.028 6.028 86.696 7.204 86.696C7.708 86.696 8.128 86.632 8.464 86.504V87.176C8.288 87.232 8.092 87.28 7.876 87.32C7.668 87.352 7.436 87.368 7.18 87.368ZM23.418 80.4688V89H22.293V81.3945H19.2344L19.082 84.7754C19.0234 85.9082 18.9062 86.7598 18.7305 87.3301C18.5586 87.9004 18.3047 88.3203 17.9688 88.5898C17.6328 88.8555 17.1836 88.9922 16.6211 89H16.252V88.0801L16.4863 88.0684C16.8496 88.041 17.1289 87.9238 17.3242 87.7168C17.5195 87.5059 17.668 87.1719 17.7695 86.7148C17.8711 86.2578 17.9434 85.5547 17.9863 84.6055L18.1621 80.4688H23.418ZM29.3945 82.6602H30.4785V89H29.3945V84.377L26.4707 89H25.3867V82.6602H26.4707V87.2891L29.3945 82.6602ZM36.3145 83.5566H33.3906V89H32.3008V82.6602H36.3145V83.5566ZM41.1719 89C41.1094 88.875 41.0586 88.6523 41.0195 88.332C40.5156 88.8555 39.9141 89.1172 39.2148 89.1172C38.5898 89.1172 38.0762 88.9414 37.6738 88.5898C37.2754 88.2344 37.0762 87.7852 37.0762 87.2422C37.0762 86.582 37.3262 86.0703 37.8262 85.707C38.3301 85.3398 39.0371 85.1562 39.9473 85.1562H41.002V84.6582C41.002 84.2793 40.8887 83.9785 40.6621 83.7559C40.4355 83.5293 40.1016 83.416 39.6602 83.416C39.2734 83.416 38.9492 83.5137 38.6875 83.709C38.4258 83.9043 38.2949 84.1406 38.2949 84.418H37.2051C37.2051 84.1016 37.3164 83.7969 37.5391 83.5039C37.7656 83.207 38.0703 82.9727 38.4531 82.8008C38.8398 82.6289 39.2637 82.543 39.7246 82.543C40.4551 82.543 41.0273 82.7266 41.4414 83.0938C41.8555 83.457 42.0703 83.959 42.0859 84.5996V87.5176C42.0859 88.0996 42.1602 88.5625 42.3086 88.9062V89H41.1719ZM39.373 88.1738C39.7129 88.1738 40.0352 88.0859 40.3398 87.9102C40.6445 87.7344 40.8652 87.5059 41.002 87.2246V85.9238H40.1523C38.8242 85.9238 38.1602 86.3125 38.1602 87.0898C38.1602 87.4297 38.2734 87.6953 38.5 87.8867C38.7266 88.0781 39.0176 88.1738 39.373 88.1738ZM52.1348 81.3945H48.0215V83.9492H50.1426C51.0332 83.9609 51.7285 84.1895 52.2285 84.6348C52.7285 85.0801 52.9785 85.6855 52.9785 86.4512C52.9785 87.2207 52.7266 87.834 52.2227 88.291C51.7188 88.748 51.0312 88.9844 50.1602 89H46.8906V80.4688H52.1348V81.3945ZM48.0215 84.875V88.0801H50.0781C50.6367 88.0801 51.0703 87.9316 51.3789 87.6348C51.6914 87.3379 51.8477 86.9395 51.8477 86.4395C51.8477 85.959 51.6973 85.5801 51.3965 85.3027C51.0996 85.0254 50.6758 84.8828 50.125 84.875H48.0215ZM58.2461 89C58.1836 88.875 58.1328 88.6523 58.0938 88.332C57.5898 88.8555 56.9883 89.1172 56.2891 89.1172C55.6641 89.1172 55.1504 88.9414 54.748 88.5898C54.3496 88.2344 54.1504 87.7852 54.1504 87.2422C54.1504 86.582 54.4004 86.0703 54.9004 85.707C55.4043 85.3398 56.1113 85.1562 57.0215 85.1562H58.0762V84.6582C58.0762 84.2793 57.9629 83.9785 57.7363 83.7559C57.5098 83.5293 57.1758 83.416 56.7344 83.416C56.3477 83.416 56.0234 83.5137 55.7617 83.709C55.5 83.9043 55.3691 84.1406 55.3691 84.418H54.2793C54.2793 84.1016 54.3906 83.7969 54.6133 83.5039C54.8398 83.207 55.1445 82.9727 55.5273 82.8008C55.9141 82.6289 56.3379 82.543 56.7988 82.543C57.5293 82.543 58.1016 82.7266 58.5156 83.0938C58.9297 83.457 59.1445 83.959 59.1602 84.5996V87.5176C59.1602 88.0996 59.2344 88.5625 59.3828 88.9062V89H58.2461ZM56.4473 88.1738C56.7871 88.1738 57.1094 88.0859 57.4141 87.9102C57.7188 87.7344 57.9395 87.5059 58.0762 87.2246V85.9238H57.2266C55.8984 85.9238 55.2344 86.3125 55.2344 87.0898C55.2344 87.4297 55.3477 87.6953 55.5742 87.8867C55.8008 88.0781 56.0918 88.1738 56.4473 88.1738ZM66.0391 89H64.9551V86.293H62.043V89H60.9531V82.6602H62.043V85.4082H64.9551V82.6602H66.0391V89ZM69.7598 86.2988H68.9688V89H67.8789V82.6602H68.9688V85.3438H69.6777L71.8105 82.6602H73.123L70.6152 85.707L73.334 89H71.957L69.7598 86.2988ZM74.2305 90.6992L73.6152 90.2773C73.9824 89.7656 74.1738 89.2383 74.1895 88.6953V87.7168H75.25V88.5664C75.25 88.9609 75.1523 89.3555 74.957 89.75C74.7656 90.1445 74.5234 90.4609 74.2305 90.6992ZM85.0762 89H79.4863V88.2207L82.4395 84.9395C82.877 84.4434 83.1777 84.041 83.3418 83.7324C83.5098 83.4199 83.5938 83.0977 83.5938 82.7656C83.5938 82.3203 83.459 81.9551 83.1895 81.6699C82.9199 81.3848 82.5605 81.2422 82.1113 81.2422C81.5723 81.2422 81.1523 81.3965 80.8516 81.7051C80.5547 82.0098 80.4062 82.4355 80.4062 82.9824H79.3223C79.3223 82.1973 79.5742 81.5625 80.0781 81.0781C80.5859 80.5938 81.2637 80.3516 82.1113 80.3516C82.9043 80.3516 83.5312 80.5605 83.9922 80.9785C84.4531 81.3926 84.6836 81.9453 84.6836 82.6367C84.6836 83.4766 84.1484 84.4766 83.0781 85.6367L80.793 88.1152H85.0762V89ZM91.5742 85.3613C91.5742 86.6309 91.3574 87.5742 90.9238 88.1914C90.4902 88.8086 89.8125 89.1172 88.8906 89.1172C87.9805 89.1172 87.3066 88.8164 86.8691 88.2148C86.4316 87.6094 86.2051 86.707 86.1895 85.5078V84.0605C86.1895 82.8066 86.4062 81.875 86.8398 81.2656C87.2734 80.6562 87.9531 80.3516 88.8789 80.3516C89.7969 80.3516 90.4727 80.6465 90.9062 81.2363C91.3398 81.8223 91.5625 82.7285 91.5742 83.9551V85.3613ZM90.4902 83.8789C90.4902 82.9609 90.3613 82.293 90.1035 81.875C89.8457 81.4531 89.4375 81.2422 88.8789 81.2422C88.3242 81.2422 87.9199 81.4512 87.666 81.8691C87.4121 82.2871 87.2812 82.9297 87.2734 83.7969V85.5312C87.2734 86.4531 87.4062 87.1348 87.6719 87.5762C87.9414 88.0137 88.3477 88.2324 88.8906 88.2324C89.4258 88.2324 89.8223 88.0254 90.0801 87.6113C90.3418 87.1973 90.4785 86.5449 90.4902 85.6543V83.8789ZM96.5254 89H95.4355V81.7754L93.25 82.5781V81.5938L96.3555 80.4277H96.5254V89ZM103.855 85.25C103.629 85.5195 103.357 85.7363 103.041 85.9004C102.729 86.0645 102.385 86.1465 102.01 86.1465C101.518 86.1465 101.088 86.0254 100.721 85.7832C100.357 85.541 100.076 85.2012 99.877 84.7637C99.6777 84.3223 99.5781 83.8359 99.5781 83.3047C99.5781 82.7344 99.6855 82.2207 99.9004 81.7637C100.119 81.3066 100.428 80.957 100.826 80.7148C101.225 80.4727 101.689 80.3516 102.221 80.3516C103.064 80.3516 103.729 80.668 104.213 81.3008C104.701 81.9297 104.945 82.7891 104.945 83.8789V84.1953C104.945 85.8555 104.617 87.0684 103.961 87.834C103.305 88.5957 102.314 88.9863 100.99 89.0059H100.779V88.0918H101.008C101.902 88.0762 102.59 87.8438 103.07 87.3945C103.551 86.9414 103.812 86.2266 103.855 85.25ZM102.186 85.25C102.549 85.25 102.883 85.1387 103.188 84.916C103.496 84.6934 103.721 84.418 103.861 84.0898V83.6562C103.861 82.9453 103.707 82.3672 103.398 81.9219C103.09 81.4766 102.699 81.2539 102.227 81.2539C101.75 81.2539 101.367 81.4375 101.078 81.8047C100.789 82.168 100.645 82.6484 100.645 83.2461C100.645 83.8281 100.783 84.3086 101.061 84.6875C101.342 85.0625 101.717 85.25 102.186 85.25Z" fill="#707C87"/>
<path d="M16.75 1H13.8333L1 22.3415H4.79167L6.54167 19.2927L16.75 1Z" fill="#2C36F2"/>
<path d="M2.75 26H27.25L16.75 7.09756L15 10.1463L20.25 19.2927L22 22.3415H4.79167H1L2.75 26Z" fill="#2C36F2"/>
<path d="M22 22.3415L20.25 19.2927H9.75H6.54167L4.79167 22.3415H22Z" fill="#2C36F2"/>
<path d="M27.25 26L29 22.3415L16.75 1L6.54167 19.2927H9.75L15 10.1463L16.75 7.09756L27.25 26Z" fill="#2C36F2"/>
<path d="M15 10.1463L9.75 19.2927H20.25L15 10.1463Z" fill="#2C36F2"/>
<path d="M27.25 26H2.75L1 22.3415M27.25 26L29 22.3415L16.75 1M27.25 26L16.75 7.09756L15 10.1463M16.75 1H13.8333L1 22.3415M16.75 1L6.54167 19.2927M1 22.3415H4.79167M15 10.1463L9.75 19.2927M15 10.1463L20.25 19.2927M9.75 19.2927H20.25M9.75 19.2927H6.54167M20.25 19.2927L22 22.3415H4.79167M6.54167 19.2927L4.79167 22.3415" stroke="#F6F7FF"/>
</svg>
