<svg width="174" height="34" viewBox="0 0 174 34" fill="none" xmlns="http://www.w3.org/2000/svg">
<path d="M41.5137 17.9355C41.5137 19.1895 41.2969 20.291 40.8633 21.2402C40.4297 22.1836 39.8086 22.9102 39 23.4199C38.1973 23.9238 37.2715 24.1758 36.2227 24.1758C35.1855 24.1758 34.2598 23.9238 33.4453 23.4199C32.6367 22.9102 32.0098 22.1865 31.5645 21.249C31.125 20.3115 30.9023 19.2305 30.8965 18.0059V17.2852C30.8965 16.0371 31.1162 14.9355 31.5557 13.9805C32.001 13.0254 32.625 12.2959 33.4277 11.792C34.2363 11.2822 35.1621 11.0273 36.2051 11.0273C37.248 11.0273 38.1709 11.2793 38.9736 11.7832C39.7822 12.2812 40.4062 13.002 40.8457 13.9453C41.2852 14.8828 41.5078 15.9756 41.5137 17.2236V17.9355ZM39.29 17.2676C39.29 15.8496 39.0205 14.7627 38.4814 14.0068C37.9482 13.251 37.1895 12.873 36.2051 12.873C35.2441 12.873 34.4912 13.251 33.9463 14.0068C33.4072 14.7568 33.1318 15.8203 33.1201 17.1973V17.9355C33.1201 19.3418 33.3926 20.4287 33.9375 21.1963C34.4883 21.9639 35.25 22.3477 36.2227 22.3477C37.207 22.3477 37.9629 21.9727 38.4902 21.2227C39.0234 20.4727 39.29 19.377 39.29 17.9355V17.2676ZM51.5771 24H49.4414V20.1592H45.7412V24H43.6055V14.4902H45.7412V18.4541H49.4414V14.4902H51.5771V24ZM61.9395 14.4902V24H59.8037V16.2129H57.1143L56.9385 19.5264C56.8271 21.1201 56.5195 22.2656 56.0156 22.9629C55.5176 23.6543 54.7529 24 53.7217 24H53.0625L53.0537 22.2246L53.4932 22.1807C53.9619 22.1162 54.3018 21.832 54.5127 21.3281C54.7295 20.8184 54.8672 19.8926 54.9258 18.5508L55.1016 14.4902H61.9395ZM69.8936 24C69.7998 23.8184 69.7178 23.5225 69.6475 23.1123C68.9678 23.8213 68.1357 24.1758 67.1514 24.1758C66.1963 24.1758 65.417 23.9033 64.8135 23.3584C64.21 22.8135 63.9082 22.1396 63.9082 21.3369C63.9082 20.3232 64.2832 19.5469 65.0332 19.0078C65.7891 18.4629 66.8672 18.1904 68.2676 18.1904H69.5771V17.5664C69.5771 17.0742 69.4395 16.6816 69.1641 16.3887C68.8887 16.0898 68.4697 15.9404 67.9072 15.9404C67.4209 15.9404 67.0225 16.0635 66.7119 16.3096C66.4014 16.5498 66.2461 16.8574 66.2461 17.2324H64.1104C64.1104 16.7109 64.2832 16.2246 64.6289 15.7734C64.9746 15.3164 65.4434 14.959 66.0352 14.7012C66.6328 14.4434 67.2979 14.3145 68.0303 14.3145C69.1436 14.3145 70.0312 14.5957 70.6934 15.1582C71.3555 15.7148 71.6953 16.5 71.7129 17.5137V21.8027C71.7129 22.6582 71.833 23.3408 72.0732 23.8506V24H69.8936ZM67.5469 22.4619C67.9688 22.4619 68.3643 22.3594 68.7334 22.1543C69.1084 21.9492 69.3896 21.6738 69.5771 21.3281V19.5352H68.4258C67.6348 19.5352 67.04 19.6729 66.6416 19.9482C66.2432 20.2236 66.0439 20.6133 66.0439 21.1172C66.0439 21.5273 66.1787 21.8555 66.4482 22.1016C66.7236 22.3418 67.0898 22.4619 67.5469 22.4619ZM79.8867 14.4902H82.0137V24H79.8867V17.6543L76.1602 24H74.0332V14.4902H76.1602V20.8359L79.8867 14.4902ZM80.8887 10.8428C80.8887 11.5811 80.6309 12.1787 80.1152 12.6357C79.5996 13.0928 78.9111 13.3213 78.0498 13.3213C77.1885 13.3213 76.5 13.0928 75.9844 12.6357C75.4688 12.1787 75.2109 11.5811 75.2109 10.8428H76.8105C76.8105 11.2295 76.9189 11.5312 77.1357 11.748C77.3584 11.959 77.6631 12.0645 78.0498 12.0645C78.4365 12.0645 78.7383 11.959 78.9551 11.748C79.1719 11.5312 79.2803 11.2295 79.2803 10.8428H80.8887ZM92.3408 24H90.2051V20.1592H86.5049V24H84.3691V14.4902H86.5049V18.4541H90.2051V14.4902H92.3408V24ZM98.7656 19.4209H94.1514V17.6982H98.7656V19.4209ZM104.435 22.4707C104.968 22.4707 105.41 22.3154 105.762 22.0049C106.113 21.6943 106.301 21.3105 106.324 20.8535H108.337C108.313 21.4453 108.129 21.999 107.783 22.5146C107.438 23.0244 106.969 23.4287 106.377 23.7275C105.785 24.0264 105.146 24.1758 104.461 24.1758C103.131 24.1758 102.076 23.7451 101.297 22.8838C100.518 22.0225 100.128 20.833 100.128 19.3154V19.0957C100.128 17.6484 100.515 16.4912 101.288 15.624C102.062 14.751 103.116 14.3145 104.452 14.3145C105.583 14.3145 106.503 14.6455 107.212 15.3076C107.927 15.9639 108.302 16.8281 108.337 17.9004H106.324C106.301 17.3555 106.113 16.9072 105.762 16.5557C105.416 16.2041 104.974 16.0283 104.435 16.0283C103.743 16.0283 103.21 16.2803 102.835 16.7842C102.46 17.2822 102.27 18.041 102.264 19.0605V19.4033C102.264 20.4346 102.448 21.2051 102.817 21.7148C103.192 22.2188 103.731 22.4707 104.435 22.4707ZM114.138 24.1758C112.784 24.1758 111.686 23.751 110.842 22.9014C110.004 22.0459 109.585 20.9092 109.585 19.4912V19.2275C109.585 18.2783 109.767 17.4316 110.13 16.6875C110.499 15.9375 111.015 15.3545 111.677 14.9385C112.339 14.5225 113.077 14.3145 113.892 14.3145C115.187 14.3145 116.186 14.7275 116.889 15.5537C117.598 16.3799 117.952 17.5488 117.952 19.0605V19.9219H111.738C111.803 20.707 112.063 21.3281 112.521 21.7852C112.983 22.2422 113.563 22.4707 114.261 22.4707C115.239 22.4707 116.036 22.0752 116.651 21.2842L117.803 22.3828C117.422 22.9512 116.912 23.3936 116.273 23.71C115.641 24.0205 114.929 24.1758 114.138 24.1758ZM113.883 16.0283C113.297 16.0283 112.822 16.2334 112.459 16.6436C112.102 17.0537 111.873 17.625 111.773 18.3574H115.843V18.1992C115.796 17.4844 115.605 16.9453 115.271 16.582C114.938 16.2129 114.475 16.0283 113.883 16.0283ZM127.945 19.3418C127.945 20.8125 127.611 21.9873 126.943 22.8662C126.275 23.7393 125.379 24.1758 124.254 24.1758C123.211 24.1758 122.376 23.833 121.749 23.1475V27.6562H119.613V14.4902H121.582L121.67 15.457C122.297 14.6953 123.149 14.3145 124.228 14.3145C125.388 14.3145 126.296 14.748 126.952 15.6152C127.614 16.4766 127.945 17.6748 127.945 19.21V19.3418ZM125.818 19.1572C125.818 18.208 125.628 17.4551 125.247 16.8984C124.872 16.3418 124.333 16.0635 123.63 16.0635C122.757 16.0635 122.13 16.4238 121.749 17.1445V21.3633C122.136 22.1016 122.769 22.4707 123.647 22.4707C124.327 22.4707 124.857 22.1982 125.238 21.6533C125.625 21.1025 125.818 20.2705 125.818 19.1572ZM129.923 24V14.4902H133.781C135.082 14.4902 136.072 14.7188 136.752 15.1758C137.432 15.627 137.771 16.2773 137.771 17.127C137.771 17.5664 137.634 17.9619 137.358 18.3135C137.089 18.6592 136.688 18.9258 136.154 19.1133C136.775 19.2422 137.268 19.5029 137.631 19.8955C137.994 20.2881 138.176 20.751 138.176 21.2842C138.176 22.1689 137.848 22.8428 137.191 23.3057C136.541 23.7686 135.604 24 134.379 24H129.923ZM132.059 19.9482V22.3125H134.396C135.492 22.3125 136.04 21.9199 136.04 21.1348C136.04 20.3438 135.483 19.9482 134.37 19.9482H132.059ZM132.059 18.4189H133.816C135.029 18.4189 135.636 18.0615 135.636 17.3467C135.636 16.5967 135.062 16.21 133.913 16.1865H132.059V18.4189ZM145.963 14.4902H148.09V24H145.963V17.6543L142.236 24H140.109V14.4902H142.236V20.8359L145.963 14.4902ZM154.269 22.4707C154.802 22.4707 155.244 22.3154 155.596 22.0049C155.947 21.6943 156.135 21.3105 156.158 20.8535H158.171C158.147 21.4453 157.963 21.999 157.617 22.5146C157.271 23.0244 156.803 23.4287 156.211 23.7275C155.619 24.0264 154.98 24.1758 154.295 24.1758C152.965 24.1758 151.91 23.7451 151.131 22.8838C150.352 22.0225 149.962 20.833 149.962 19.3154V19.0957C149.962 17.6484 150.349 16.4912 151.122 15.624C151.896 14.751 152.95 14.3145 154.286 14.3145C155.417 14.3145 156.337 14.6455 157.046 15.3076C157.761 15.9639 158.136 16.8281 158.171 17.9004H156.158C156.135 17.3555 155.947 16.9072 155.596 16.5557C155.25 16.2041 154.808 16.0283 154.269 16.0283C153.577 16.0283 153.044 16.2803 152.669 16.7842C152.294 17.2822 152.104 18.041 152.098 19.0605V19.4033C152.098 20.4346 152.282 21.2051 152.651 21.7148C153.026 22.2188 153.565 22.4707 154.269 22.4707ZM162.082 17.5137H164.174C164.953 17.5137 165.633 17.6484 166.213 17.918C166.793 18.1875 167.232 18.5654 167.531 19.0518C167.836 19.5381 167.988 20.1035 167.988 20.748C167.988 21.7266 167.643 22.5117 166.951 23.1035C166.26 23.6953 165.34 23.9941 164.191 24H159.946V14.4902H162.082V17.5137ZM171.706 24H169.57V14.4902H171.706V24ZM162.082 19.2275V22.2949H164.165C164.687 22.2949 165.097 22.166 165.396 21.9082C165.7 21.6445 165.853 21.2725 165.853 20.792C165.853 20.3115 165.703 19.9336 165.404 19.6582C165.111 19.377 164.713 19.2334 164.209 19.2275H162.082Z" fill="#4C4B51"/>
<path d="M17.6746 0H2.3254C1.04663 0 0 1.03263 0 2.29646V31.7026C0 32.9664 1.04663 34 2.3254 34H17.6746C18.9534 34 20 32.9683 20 31.7035V2.29646C20 1.03263 18.9534 0 17.6746 0ZM7.54476 1.65531H12.4552C12.6107 1.65531 12.7366 1.77966 12.7366 1.93411C12.7366 2.0876 12.6107 2.21194 12.4552 2.21194H7.54476C7.38934 2.21194 7.26343 2.0876 7.26343 1.93411C7.26343 1.77966 7.38934 1.65531 7.54476 1.65531ZM10 32.8518C9.35766 32.8518 8.8373 32.3379 8.8373 31.7026C8.8373 31.0673 9.35766 30.5543 10 30.5543C10.6423 30.5543 11.1627 31.0673 11.1627 31.7026C11.1627 32.3379 10.6423 32.8518 10 32.8518ZM18.3819 29.75H1.61814V3.64189H18.3819V29.75Z" fill="#565EF5"/>
</svg>
